Nobile-Regular.ufo
<glyph name="exclam" format="1">
  <advance width="501"/>
  <unicode hex="0021"/>
  <outline>
    <contour>
      <point x="270" y="0" type="curve" smooth="yes"/>
      <point x="330" y="0"/>
      <point x="369" y="49"/>
      <point x="369" y="106" type="curve" smooth="yes"/>
      <point x="369" y="163"/>
      <point x="330" y="212"/>
      <point x="270" y="212" type="curve" smooth="yes"/>
      <point x="210" y="212"/>
      <point x="165" y="164"/>
      <point x="165" y="106" type="curve" smooth="yes"/>
      <point x="165" y="49"/>
      <point x="211" y="0"/>
    </contour>
    <contour>
      <point x="225" y="381" type="line"/>
      <point x="307" y="381" type="line"/>
      <point x="353" y="1484" type="line"/>
      <point x="179" y="1484" type="line"/>
    </contour>
  </outline>
</glyph>
<glyph name="quotedbl" format="1">
  <advance width="579"/>
  <unicode hex="0022"/>
  <outline>
    <contour>
      <point x="95" y="999" type="line"/>
      <point x="195" y="999" type="line"/>
      <point x="222" y="1418" type="line"/>
      <point x="223" y="1437"/>
      <point x="222" y="1466"/>
      <point x="222" y="1486" type="curve"/>
      <point x="58" y="1486" type="line"/>
      <point x="58" y="1466"/>
      <point x="56" y="1437"/>
      <point x="58" y="1418" type="curve"/>
    </contour>
    <contour>
      <point x="392" y="999" type="line"/>
      <point x="492" y="999" type="line"/>
      <point x="528" y="1418" type="line"/>
      <point x="530" y="1437"/>
      <point x="528" y="1466"/>
      <point x="528" y="1486" type="curve"/>
      <point x="373" y="1486" type="line"/>
      <point x="373" y="1466"/>
      <point x="372" y="1437"/>
      <point x="373" y="1418" type="curve"/>
    </contour>
  </outline>
</glyph>
<glyph name="numbersign" format="1">
  <advance width="1289"/>
  <unicode hex="0023"/>
  <outline>
    <contour>
      <point x="172" y="0" type="line"/>
      <point x="290" y="0" type="line"/>
      <point x="582" y="1485" type="line"/>
      <point x="447" y="1485" type="line"/>
    </contour>
    <contour>
      <point x="104" y="502" type="line"/>
      <point x="1158" y="502" type="line"/>
      <point x="1158" y="586" type="line"/>
      <point x="104" y="586" type="line"/>
    </contour>
    <contour>
      <point x="133" y="878" type="line"/>
      <point x="1186" y="878" type="line"/>
      <point x="1186" y="962" type="line"/>
      <point x="133" y="962" type="line"/>
    </contour>
    <contour>
      <point x="706" y="0" type="line"/>
      <point x="823" y="0" type="line"/>
      <point x="1116" y="1485" type="line"/>
      <point x="981" y="1485" type="line"/>
    </contour>
  </outline>
</glyph>
<glyph name="dollar" format="1">
  <advance width="945"/>
  <unicode hex="0024"/>
  <outline>
    <component base="s" yOffset="123"/>
    <contour>
      <point x="349" y="-165" type="line"/>
      <point x="433" y="-165" type="line"/>
      <point x="618" y="1541" type="line"/>
      <point x="533" y="1541" type="line"/>
    </contour>
  </outline>
</glyph>
<glyph name="ampersand" format="1">
  <advance width="1576"/>
  <unicode hex="0026"/>
  <outline>
    <contour>
      <point x="1508" y="18" type="line"/>
      <point x="1576" y="121" type="line"/>
      <point x="1324" y="319" type="line"/>
      <point x="1367" y="440"/>
      <point x="1391" y="658"/>
      <point x="1391" y="838" type="curve"/>
      <point x="1243" y="838" type="line"/>
      <point x="1243" y="686"/>
      <point x="1247" y="538"/>
      <point x="1209" y="405" type="curve"/>
      <point x="692" y="825" type="line"/>
      <point x="877" y="882"/>
      <point x="1066" y="947"/>
      <point x="1066" y="1172" type="curve" smooth="yes"/>
      <point x="1067" y="1410"/>
      <point x="867" y="1502"/>
      <point x="651" y="1502" type="curve" smooth="yes"/>
      <point x="408" y="1502"/>
      <point x="240" y="1403"/>
      <point x="240" y="1167" type="curve" smooth="yes"/>
      <point x="240" y="1046"/>
      <point x="335" y="944"/>
      <point x="457" y="865" type="curve"/>
      <point x="234" y="781"/>
      <point x="115" y="638"/>
      <point x="115" y="412" type="curve" smooth="yes"/>
      <point x="115" y="79"/>
      <point x="376" y="-17"/>
      <point x="690" y="-17" type="curve" smooth="yes"/>
      <point x="958" y="-17"/>
      <point x="1173" y="40"/>
      <point x="1264" y="212" type="curve"/>
    </contour>
    <contour>
      <point x="689" y="116" type="curve" smooth="yes"/>
      <point x="452" y="116"/>
      <point x="288" y="177"/>
      <point x="288" y="428" type="curve" smooth="yes"/>
      <point x="288" y="601"/>
      <point x="385" y="726"/>
      <point x="557" y="783" type="curve"/>
      <point x="1158" y="288" type="line"/>
      <point x="1067" y="143"/>
      <point x="916" y="116"/>
    </contour>
    <contour>
      <point x="592" y="917" type="curve"/>
      <point x="481" y="980"/>
      <point x="408" y="1071"/>
      <point x="408" y="1168" type="curve" smooth="yes"/>
      <point x="408" y="1327"/>
      <point x="516" y="1374"/>
      <point x="651" y="1374" type="curve" smooth="yes"/>
      <point x="781" y="1374"/>
      <point x="905" y="1321"/>
      <point x="904" y="1172" type="curve" smooth="yes"/>
      <point x="903" y="1003"/>
      <point x="734" y="960"/>
    </contour>
  </outline>
</glyph>
<glyph name="parenright" format="1">
  <advance width="792"/>
  <unicode hex="0029"/>
  <outline>
    <contour>
      <point x="221" y="-171" type="line"/>
      <point x="471" y="23"/>
      <point x="594" y="371"/>
      <point x="594" y="716" type="curve" smooth="yes"/>
      <point x="594" y="1070"/>
      <point x="474" y="1421"/>
      <point x="232" y="1625" type="curve"/>
      <point x="130" y="1534" type="line"/>
      <point x="317" y="1346"/>
      <point x="409" y="1023"/>
      <point x="409" y="716" type="curve" smooth="yes"/>
      <point x="409" y="397"/>
      <point x="321" y="93"/>
      <point x="145" y="-74" type="curve"/>
    </contour>
  </outline>
</glyph>
<glyph name="asterisk" format="1">
  <advance width="872"/>
  <unicode hex="002A"/>
  <outline>
    <contour>
      <point x="287" y="766" type="line"/>
      <point x="432" y="1030" type="line"/>
      <point x="577" y="766" type="line"/>
      <point x="672" y="816" type="line"/>
      <point x="505" y="1075" type="line"/>
      <point x="793" y="1069" type="line"/>
      <point x="793" y="1166" type="line"/>
      <point x="503" y="1159" type="line"/>
      <point x="659" y="1418" type="line"/>
      <point x="564" y="1465" type="line"/>
      <point x="432" y="1203" type="line"/>
      <point x="300" y="1465" type="line"/>
      <point x="205" y="1418" type="line"/>
      <point x="359" y="1159" type="line"/>
      <point x="70" y="1166" type="line"/>
      <point x="70" y="1069" type="line"/>
      <point x="357" y="1075" type="line"/>
      <point x="193" y="816" type="line"/>
    </contour>
  </outline>
</glyph>
<glyph name="plus" format="1">
  <advance width="1000"/>
  <unicode hex="002B"/>
  <outline>
    <contour>
      <point x="431" y="165" type="line"/>
      <point x="561" y="165" type="line"/>
      <point x="561" y="488" type="line"/>
      <point x="856" y="488" type="line"/>
      <point x="856" y="611" type="line"/>
      <point x="561" y="611" type="line"/>
      <point x="561" y="934" type="line"/>
      <point x="431" y="934" type="line"/>
      <point x="431" y="611" type="line"/>
      <point x="136" y="611" type="line"/>
      <point x="136" y="488" type="line"/>
      <point x="431" y="488" type="line"/>
    </contour>
  </outline>
</glyph>
<glyph name="comma" format="1">
  <advance width="665"/>
  <unicode hex="002C"/>
  <outline>
    <contour>
      <point x="246" y="-255" type="line"/>
      <point x="383" y="-216"/>
      <point x="458" y="-103"/>
      <point x="458" y="40" type="curve" smooth="yes"/>
      <point x="458" y="273" type="line"/>
      <point x="218" y="273" type="line"/>
      <point x="218" y="1" type="line"/>
      <point x="321" y="1" type="line"/>
      <point x="322" y="-90"/>
      <point x="289" y="-152"/>
      <point x="209" y="-179" type="curve"/>
    </contour>
  </outline>
</glyph>
<glyph name="hyphen" format="1">
  <advance width="929"/>
  <unicode hex="002D"/>
  <unicode hex="2015"/>
  <outline>
    <contour>
      <point x="462" y="550" type="move" name="_mid"/>
    </contour>
    <contour>
      <point x="149" y="477" type="line"/>
      <point x="781" y="477" type="line"/>
      <point x="781" y="621" type="line"/>
      <point x="149" y="621" type="line"/>
    </contour>
  </outline>
</glyph>
<glyph name="zero" format="1">
  <advance width="1271"/>
  <unicode hex="0030"/>
  <outline>
    <contour>
      <point x="631" y="114" type="curve" smooth="yes"/>
      <point x="363" y="114"/>
      <point x="271" y="325"/>
      <point x="271" y="556" type="curve" smooth="yes"/>
      <point x="271" y="776"/>
      <point x="359" y="985"/>
      <point x="631" y="985" type="curve" smooth="yes"/>
      <point x="894" y="985"/>
      <point x="994" y="786"/>
      <point x="994" y="570" type="curve" smooth="yes"/>
      <point x="994" y="336"/>
      <point x="911" y="114"/>
    </contour>
    <contour>
      <point x="631" y="-17" type="curve" smooth="yes"/>
      <point x="977" y="-17"/>
      <point x="1166" y="235"/>
      <point x="1166" y="555" type="curve" smooth="yes"/>
      <point x="1166" y="865"/>
      <point x="979" y="1115"/>
      <point x="631" y="1115" type="curve" smooth="yes"/>
      <point x="281" y="1115"/>
      <point x="99" y="868"/>
      <point x="99" y="555" type="curve" smooth="yes"/>
      <point x="99" y="241"/>
      <point x="287" y="-17"/>
    </contour>
  </outline>
</glyph>
<glyph name="one" format="1">
  <advance width="795"/>
  <unicode hex="0031"/>
  <outline>
    <contour>
      <point x="424" y="0" type="line"/>
      <point x="596" y="0" type="line"/>
      <point x="596" y="1096" type="line"/>
      <point x="420" y="1096" type="line"/>
      <point x="158" y="965" type="line"/>
      <point x="208" y="849" type="line"/>
      <point x="424" y="953" type="line"/>
    </contour>
  </outline>
</glyph>
<glyph name="two" format="1">
  <advance width="1001"/>
  <unicode hex="0032"/>
  <outline>
    <contour>
      <point x="121" y="0" type="line"/>
      <point x="869" y="0" type="line"/>
      <point x="869" y="125" type="line"/>
      <point x="315" y="125" type="line"/>
      <point x="581" y="341" type="line" smooth="yes"/>
      <point x="734" y="464"/>
      <point x="868" y="613"/>
      <point x="868" y="783" type="curve" smooth="yes"/>
      <point x="868" y="1018"/>
      <point x="685" y="1115"/>
      <point x="483" y="1115" type="curve" smooth="yes"/>
      <point x="368" y="1115"/>
      <point x="251" y="1083"/>
      <point x="158" y="1028" type="curve"/>
      <point x="208" y="916" type="line"/>
      <point x="293" y="958"/>
      <point x="395" y="987"/>
      <point x="488" y="987" type="curve" smooth="yes"/>
      <point x="614" y="987"/>
      <point x="718" y="933"/>
      <point x="718" y="784" type="curve" smooth="yes"/>
      <point x="718" y="629"/>
      <point x="599" y="535"/>
      <point x="488" y="438" type="curve" smooth="yes"/>
      <point x="121" y="119" type="line"/>
    </contour>
  </outline>
</glyph>
<glyph name="four" format="1">
  <advance width="1130"/>
  <unicode hex="0034"/>
  <outline>
    <contour>
      <point x="740" y="-245" type="line"/>
      <point x="898" y="-245" type="line"/>
      <point x="898" y="64" type="line"/>
      <point x="1073" y="64" type="line"/>
      <point x="1073" y="193" type="line"/>
      <point x="898" y="193" type="line"/>
      <point x="898" y="1099" type="line"/>
      <point x="747" y="1136" type="line"/>
      <point x="104" y="190" type="line"/>
      <point x="130" y="64" type="line"/>
      <point x="740" y="64" type="line"/>
    </contour>
    <contour>
      <point x="274" y="191" type="line"/>
      <point x="740" y="880" type="line"/>
      <point x="740" y="191" type="line"/>
    </contour>
  </outline>
</glyph>
<glyph name="five" format="1">
  <advance width="1130"/>
  <unicode hex="0035"/>
  <outline>
    <contour>
      <point x="520" y="-195" type="curve" smooth="yes"/>
      <point x="786" y="-195"/>
      <point x="979" y="-46"/>
      <point x="979" y="232" type="curve" smooth="yes"/>
      <point x="979" y="486"/>
      <point x="810" y="655"/>
      <point x="556" y="655" type="curve" smooth="yes"/>
      <point x="488" y="655"/>
      <point x="378" y="637"/>
      <point x="330" y="583" type="curve"/>
      <point x="330" y="960" type="line"/>
      <point x="897" y="960" type="line"/>
      <point x="897" y="1099" type="line"/>
      <point x="196" y="1099" type="line"/>
      <point x="196" y="505" type="line"/>
      <point x="259" y="441" type="line"/>
      <point x="339" y="480"/>
      <point x="446" y="529"/>
      <point x="540" y="529" type="curve" smooth="yes"/>
      <point x="729" y="529"/>
      <point x="821" y="408"/>
      <point x="821" y="228" type="curve" smooth="yes"/>
      <point x="821" y="32"/>
      <point x="712" y="-55"/>
      <point x="522" y="-55" type="curve" smooth="yes"/>
      <point x="417" y="-55"/>
      <point x="300" y="-21"/>
      <point x="209" y="27" type="curve"/>
      <point x="162" y="-106" type="line"/>
      <point x="280" y="-154"/>
      <point x="385" y="-195"/>
    </contour>
  </outline>
</glyph>
<glyph name="seven" format="1">
  <advance width="1087"/>
  <unicode hex="0037"/>
  <outline>
    <contour>
      <point x="429" y="-222" type="line"/>
      <point x="966" y="985" type="line"/>
      <point x="914" y="1098" type="line"/>
      <point x="129" y="1098" type="line"/>
      <point x="129" y="955" type="line"/>
      <point x="769" y="955" type="line"/>
      <point x="274" y="-152" type="line"/>
    </contour>
  </outline>
</glyph>
<glyph name="nine" format="1">
  <advance width="1227"/>
  <unicode hex="0039"/>
  <outline>
    <contour>
      <point x="417" y="-272" type="line"/>
      <point x="828" y="-176"/>
      <point x="1087" y="144"/>
      <point x="1087" y="569" type="curve" smooth="yes"/>
      <point x="1087" y="875"/>
      <point x="945" y="1115"/>
      <point x="613" y="1115" type="curve" smooth="yes"/>
      <point x="338" y="1115"/>
      <point x="146" y="933"/>
      <point x="146" y="653" type="curve" smooth="yes"/>
      <point x="146" y="390"/>
      <point x="325" y="224"/>
      <point x="582" y="224" type="curve" smooth="yes"/>
      <point x="706" y="224"/>
      <point x="824" y="263"/>
      <point x="904" y="362" type="curve"/>
      <point x="856" y="97"/>
      <point x="634" y="-84"/>
      <point x="378" y="-138" type="curve"/>
    </contour>
    <contour>
      <point x="582" y="349" type="curve" smooth="yes"/>
      <point x="403" y="349"/>
      <point x="308" y="480"/>
      <point x="308" y="654" type="curve" smooth="yes"/>
      <point x="308" y="840"/>
      <point x="419" y="984"/>
      <point x="613" y="984" type="curve" smooth="yes"/>
      <point x="851" y="984"/>
      <point x="922" y="794"/>
      <point x="922" y="591" type="curve" smooth="yes"/>
      <point x="922" y="552"/>
      <point x="922" y="515"/>
      <point x="916" y="478" type="curve"/>
      <point x="853" y="401"/>
      <point x="677" y="349"/>
    </contour>
  </outline>
</glyph>
<glyph name="colon" format="1">
  <advance width="664"/>
  <unicode hex="003A"/>
  <outline>
    <contour>
      <point x="207" y="0" type="line"/>
      <point x="453" y="0" type="line"/>
      <point x="453" y="261" type="line"/>
      <point x="207" y="261" type="line"/>
    </contour>
    <contour>
      <point x="207" y="545" type="line"/>
      <point x="453" y="545" type="line"/>
      <point x="453" y="807" type="line"/>
      <point x="207" y="807" type="line"/>
    </contour>
  </outline>
</glyph>
<glyph name="semicolon" format="1">
  <advance width="665"/>
  <unicode hex="003B"/>
  <outline>
    <contour>
      <point x="246" y="-237" type="line"/>
      <point x="380" y="-198"/>
      <point x="458" y="-105"/>
      <point x="458" y="39" type="curve" smooth="yes"/>
      <point x="458" y="273" type="line"/>
      <point x="201" y="273" type="line"/>
      <point x="201" y="0" type="line"/>
      <point x="321" y="0" type="line"/>
      <point x="322" y="-89"/>
      <point x="279" y="-124"/>
      <point x="199" y="-151" type="curve"/>
    </contour>
    <contour>
      <point x="202" y="545" type="line"/>
      <point x="458" y="545" type="line"/>
      <point x="458" y="807" type="line"/>
      <point x="202" y="807" type="line"/>
    </contour>
  </outline>
</glyph>
<glyph name="less" format="1">
  <advance width="1362"/>
  <unicode hex="003C"/>
  <outline>
    <contour>
      <point x="1092" y="143" type="line"/>
      <point x="1165" y="244" type="line"/>
      <point x="452" y="708" type="line"/>
      <point x="1165" y="1171" type="line"/>
      <point x="1092" y="1273" type="line"/>
      <point x="197" y="708" type="line"/>
    </contour>
  </outline>
</glyph>
<glyph name="at" format="1">
  <advance width="1872"/>
  <unicode hex="0040"/>
  <outline>
    <contour>
      <point x="934" y="-118" type="curve" smooth="yes"/>
      <point x="1088" y="-118"/>
      <point x="1261" y="-88"/>
      <point x="1381" y="-42" type="curve"/>
      <point x="1344" y="69" type="line"/>
      <point x="1232" y="21"/>
      <point x="1074" y="-9"/>
      <point x="934" y="-9" type="curve" smooth="yes"/>
      <point x="510" y="-9"/>
      <point x="250" y="246"/>
      <point x="258" y="651" type="curve" smooth="yes"/>
      <point x="267" y="1108"/>
      <point x="555" y="1394"/>
      <point x="1003" y="1394" type="curve" smooth="yes"/>
      <point x="1405" y="1394"/>
      <point x="1656" y="1165"/>
      <point x="1656" y="800" type="curve" smooth="yes"/>
      <point x="1656" y="523"/>
      <point x="1568" y="350"/>
      <point x="1428" y="350" type="curve" smooth="yes"/>
      <point x="1384" y="350"/>
      <point x="1360" y="382"/>
      <point x="1365" y="436" type="curve" smooth="yes"/>
      <point x="1365" y="437"/>
      <point x="1413" y="986"/>
      <point x="1415" y="1009" type="curve" smooth="yes"/>
      <point x="1423" y="1107"/>
      <point x="1297" y="1167"/>
      <point x="1089" y="1167" type="curve" smooth="yes"/>
      <point x="722" y="1167"/>
      <point x="492" y="938"/>
      <point x="492" y="571" type="curve" smooth="yes"/>
      <point x="492" y="370"/>
      <point x="616" y="243"/>
      <point x="816" y="243" type="curve" smooth="yes"/>
      <point x="1027" y="243"/>
      <point x="1200" y="399"/>
      <point x="1263" y="652" type="curve"/>
      <point x="1278" y="650" type="line"/>
      <point x="1278" y="601"/>
      <point x="1263" y="485"/>
      <point x="1263" y="408" type="curve" smooth="yes"/>
      <point x="1263" y="314"/>
      <point x="1320" y="257"/>
      <point x="1409" y="257" type="curve" smooth="yes"/>
      <point x="1636" y="257"/>
      <point x="1777" y="465"/>
      <point x="1777" y="800" type="curve" smooth="yes"/>
      <point x="1777" y="1231"/>
      <point x="1480" y="1502"/>
      <point x="1003" y="1502" type="curve" smooth="yes"/>
      <point x="463" y="1502"/>
      <point x="122" y="1166"/>
      <point x="122" y="630" type="curve" smooth="yes"/>
      <point x="122" y="171"/>
      <point x="436" y="-118"/>
    </contour>
    <contour>
      <point x="841" y="345" type="curve" smooth="yes"/>
      <point x="705" y="344"/>
      <point x="620" y="436"/>
      <point x="620" y="585" type="curve" smooth="yes"/>
      <point x="620" y="887"/>
      <point x="802" y="1077"/>
      <point x="1089" y="1079" type="curve" smooth="yes"/>
      <point x="1151" y="1079"/>
      <point x="1235" y="1062"/>
      <point x="1306" y="1037" type="curve"/>
      <point x="1263" y="614"/>
      <point x="1084" y="346"/>
    </contour>
  </outline>
</glyph>
<glyph name="A" format="1">
  <advance width="1331"/>
  <unicode hex="0041"/>
  <outline>
    <contour>
      <point x="660" y="1485" type="move" name="top"/>
    </contour>
    <contour>
      <point x="37" y="0" type="line"/>
      <point x="214" y="0" type="line"/>
      <point x="331" y="361" type="line"/>
      <point x="992" y="361" type="line"/>
      <point x="1108" y="0" type="line"/>
      <point x="1286" y="0" type="line"/>
      <point x="799" y="1485" type="line"/>
      <point x="523" y="1485" type="line"/>
    </contour>
    <contour>
      <point x="362" y="456" type="line"/>
      <point x="661" y="1375" type="line"/>
      <point x="961" y="456" type="line"/>
    </contour>
  </outline>
</glyph>
<glyph name="C" format="1">
  <advance width="1248"/>
  <unicode hex="0043"/>
  <outline>
    <contour>
      <point x="776" y="0" type="move" name="bot"/>
    </contour>
    <contour>
      <point x="791" y="1485" type="move" name="top"/>
    </contour>
    <contour>
      <point x="779" y="-17" type="curve" smooth="yes"/>
      <point x="937" y="-17"/>
      <point x="1071" y="34"/>
      <point x="1186" y="103" type="curve"/>
      <point x="1128" y="225" type="line"/>
      <point x="1034" y="170"/>
      <point x="912" y="123"/>
      <point x="787" y="123" type="curve" smooth="yes"/>
      <point x="413" y="123"/>
      <point x="317" y="426"/>
      <point x="317" y="737" type="curve" smooth="yes"/>
      <point x="317" y="1051"/>
      <point x="423" y="1361"/>
      <point x="794" y="1361" type="curve" smooth="yes"/>
      <point x="918" y="1361"/>
      <point x="1035" y="1314"/>
      <point x="1103" y="1275" type="curve"/>
      <point x="1158" y="1395" type="line"/>
      <point x="1080" y="1444"/>
      <point x="956" y="1502"/>
      <point x="794" y="1502" type="curve" smooth="yes"/>
      <point x="327" y="1502"/>
      <point x="137" y="1176"/>
      <point x="137" y="741" type="curve" smooth="yes"/>
      <point x="137" y="329"/>
      <point x="304" y="-17"/>
    </contour>
  </outline>
</glyph>
<glyph name="E" format="1">
  <advance width="1192"/>
  <unicode hex="0045"/>
  <outline>
    <contour>
      <point x="690" y="1485" type="move" name="top"/>
    </contour>
    <contour>
      <point x="702" y="0" type="move" name="bot"/>
    </contour>
    <contour>
      <point x="181" y="0" type="line"/>
      <point x="1069" y="0" type="line"/>
      <point x="1069" y="133" type="line"/>
      <point x="361" y="133" type="line"/>
      <point x="361" y="704" type="line"/>
      <point x="976" y="704" type="line"/>
      <point x="976" y="822" type="line"/>
      <point x="361" y="822" type="line"/>
      <point x="361" y="1353" type="line"/>
      <point x="1081" y="1353" type="line"/>
      <point x="1081" y="1485" type="line"/>
      <point x="181" y="1485" type="line"/>
    </contour>
  </outline>
</glyph>
<glyph name="F" format="1">
  <advance width="1155"/>
  <unicode hex="0046"/>
  <outline>
    <contour>
      <point x="655" y="1485" type="move" name="top"/>
    </contour>
    <contour>
      <point x="181" y="0" type="line"/>
      <point x="363" y="0" type="line"/>
      <point x="363" y="718" type="line"/>
      <point x="980" y="718" type="line"/>
      <point x="980" y="827" type="line"/>
      <point x="363" y="827" type="line"/>
      <point x="363" y="1354" type="line"/>
      <point x="1037" y="1354" type="line"/>
      <point x="1037" y="1485" type="line"/>
      <point x="181" y="1485" type="line"/>
    </contour>
  </outline>
</glyph>
<glyph name="G" format="1">
  <advance width="1472"/>
  <unicode hex="0047"/>
  <outline>
    <contour>
      <point x="767" y="0" type="move" name="bot"/>
    </contour>
    <contour>
      <point x="731" y="-17" type="curve" smooth="yes"/>
      <point x="903" y="-17"/>
      <point x="1121" y="33"/>
      <point x="1169" y="198" type="curve"/>
      <point x="1218" y="0" type="line"/>
      <point x="1299" y="0" type="line"/>
      <point x="1299" y="762" type="line"/>
      <point x="750" y="762" type="line"/>
      <point x="750" y="645" type="line"/>
      <point x="1129" y="645" type="line"/>
      <point x="1129" y="374" type="line" smooth="yes"/>
      <point x="1129" y="193"/>
      <point x="952" y="123"/>
      <point x="774" y="123" type="curve" smooth="yes"/>
      <point x="390" y="123"/>
      <point x="317" y="422"/>
      <point x="317" y="736" type="curve" smooth="yes"/>
      <point x="317" y="1044"/>
      <point x="406" y="1361"/>
      <point x="788" y="1361" type="curve" smooth="yes"/>
      <point x="903" y="1361"/>
      <point x="1047" y="1326"/>
      <point x="1134" y="1266" type="curve"/>
      <point x="1196" y="1388" type="line"/>
      <point x="1071" y="1455"/>
      <point x="946" y="1502"/>
      <point x="790" y="1502" type="curve" smooth="yes"/>
      <point x="321" y="1502"/>
      <point x="137" y="1167"/>
      <point x="137" y="740" type="curve" smooth="yes"/>
      <point x="137" y="364"/>
      <point x="296" y="-17"/>
    </contour>
  </outline>
</glyph>
<glyph name="H" format="1">
  <advance width="1507"/>
  <unicode hex="0048"/>
  <outline>
    <contour>
      <point x="755" y="1485" type="move" name="top"/>
    </contour>
    <contour>
      <point x="181" y="0" type="line"/>
      <point x="361" y="0" type="line"/>
      <point x="361" y="707" type="line"/>
      <point x="1147" y="707" type="line"/>
      <point x="1147" y="0" type="line"/>
      <point x="1325" y="0" type="line"/>
      <point x="1325" y="1485" type="line"/>
      <point x="1147" y="1485" type="line"/>
      <point x="1147" y="839" type="line"/>
      <point x="361" y="839" type="line"/>
      <point x="361" y="1485" type="line"/>
      <point x="181" y="1485" type="line"/>
    </contour>
  </outline>
</glyph>
<glyph name="I" format="1">
  <advance width="948"/>
  <unicode hex="0049"/>
  <outline>
    <contour>
      <point x="485" y="1485" type="move" name="top"/>
    </contour>
    <contour>
      <point x="193" y="0" type="line"/>
      <point x="748" y="0" type="line"/>
      <point x="748" y="103" type="line"/>
      <point x="554" y="103" type="line"/>
      <point x="554" y="1377" type="line"/>
      <point x="748" y="1377" type="line"/>
      <point x="748" y="1485" type="line"/>
      <point x="193" y="1485" type="line"/>
      <point x="193" y="1377" type="line"/>
      <point x="385" y="1377" type="line"/>
      <point x="385" y="103" type="line"/>
      <point x="193" y="103" type="line"/>
    </contour>
  </outline>
</glyph>
<glyph name="J" format="1">
  <advance width="761"/>
  <unicode hex="004A"/>
  <outline>
    <contour>
      <point x="461" y="1485" type="move" name="top"/>
    </contour>
    <contour>
      <point x="90" y="-112" type="line"/>
      <point x="507" y="-74"/>
      <point x="554" y="122"/>
      <point x="554" y="445" type="curve" smooth="yes"/>
      <point x="554" y="1485" type="line"/>
      <point x="375" y="1485" type="line"/>
      <point x="375" y="441" type="line" smooth="yes"/>
      <point x="375" y="181"/>
      <point x="369" y="76"/>
      <point x="79" y="33" type="curve"/>
    </contour>
  </outline>
</glyph>
<glyph name="K" format="1">
  <advance width="1282"/>
  <unicode hex="004B"/>
  <outline>
    <contour>
      <point x="677" y="1485" type="move" name="top"/>
    </contour>
    <contour>
      <point x="665" y="0" type="move" name="bot"/>
    </contour>
    <contour>
      <point x="181" y="0" type="line"/>
      <point x="361" y="0" type="line"/>
      <point x="361" y="704" type="line"/>
      <point x="401" y="704" type="line"/>
      <point x="1042" y="0" type="line"/>
      <point x="1258" y="0" type="line"/>
      <point x="557" y="766" type="line"/>
      <point x="1212" y="1485" type="line"/>
      <point x="1017" y="1485" type="line"/>
      <point x="392" y="822" type="line"/>
      <point x="361" y="822" type="line"/>
      <point x="361" y="1485" type="line"/>
      <point x="181" y="1485" type="line"/>
    </contour>
  </outline>
</glyph>
<glyph name="M" format="1">
  <advance width="1799"/>
  <unicode hex="004D"/>
  <outline>
    <contour>
      <point x="905" y="1485" type="move" name="top"/>
    </contour>
    <contour>
      <point x="181" y="0" type="line"/>
      <point x="342" y="0" type="line"/>
      <point x="342" y="1264" type="line"/>
      <point x="838" y="106" type="line"/>
      <point x="954" y="106" type="line"/>
      <point x="1458" y="1264" type="line"/>
      <point x="1458" y="0" type="line"/>
      <point x="1618" y="0" type="line"/>
      <point x="1618" y="1485" type="line"/>
      <point x="1395" y="1485" type="line"/>
      <point x="900" y="308" type="line"/>
      <point x="404" y="1485" type="line"/>
      <point x="181" y="1485" type="line"/>
    </contour>
  </outline>
</glyph>
<glyph name="N" format="1">
  <advance width="1539"/>
  <unicode hex="004E"/>
  <outline>
    <contour>
      <point x="787" y="1485" type="move" name="top"/>
    </contour>
    <contour>
      <point x="774" y="0" type="move" name="bot"/>
    </contour>
    <contour>
      <point x="181" y="0" type="line"/>
      <point x="340" y="0" type="line"/>
      <point x="340" y="1324" type="line"/>
      <point x="1116" y="0" type="line"/>
      <point x="1358" y="0" type="line"/>
      <point x="1358" y="1485" type="line"/>
      <point x="1199" y="1485" type="line"/>
      <point x="1199" y="161" type="line"/>
      <point x="423" y="1485" type="line"/>
      <point x="181" y="1485" type="line"/>
    </contour>
  </outline>
</glyph>
<glyph name="P" format="1">
  <advance width="1273"/>
  <unicode hex="0050"/>
  <outline>
    <contour>
      <point x="672" y="1485" type="move" name="top"/>
    </contour>
    <contour>
      <point x="181" y="0" type="line"/>
      <point x="361" y="0" type="line"/>
      <point x="361" y="606" type="line"/>
      <point x="418" y="606" type="line" smooth="yes"/>
      <point x="752" y="605"/>
      <point x="1212" y="603"/>
      <point x="1212" y="1045" type="curve" smooth="yes"/>
      <point x="1212" y="1445"/>
      <point x="887" y="1485"/>
      <point x="559" y="1485" type="curve" smooth="yes"/>
      <point x="181" y="1485" type="line"/>
    </contour>
    <contour>
      <point x="361" y="741" type="line"/>
      <point x="361" y="1354" type="line"/>
      <point x="571" y="1354" type="line" smooth="yes"/>
      <point x="850" y="1354"/>
      <point x="1043" y="1340"/>
      <point x="1043" y="1024" type="curve" smooth="yes"/>
      <point x="1043" y="748"/>
      <point x="740" y="741"/>
      <point x="529" y="741" type="curve" smooth="yes"/>
    </contour>
  </outline>
</glyph>
<glyph name="Q" format="1">
  <advance width="1504"/>
  <unicode hex="0051"/>
  <outline>
    <contour>
      <point x="1013" y="-400" type="line"/>
      <point x="1120" y="-332" type="line"/>
      <point x="880" y="-7" type="line"/>
      <point x="1234" y="52"/>
      <point x="1367" y="367"/>
      <point x="1367" y="738" type="curve" smooth="yes"/>
      <point x="1367" y="1161"/>
      <point x="1206" y="1502"/>
      <point x="751" y="1502" type="curve" smooth="yes"/>
      <point x="305" y="1502"/>
      <point x="137" y="1141"/>
      <point x="137" y="738" type="curve" smooth="yes"/>
      <point x="137" y="334"/>
      <point x="294" y="-1"/>
      <point x="721" y="-16" type="curve"/>
    </contour>
    <contour>
      <point x="751" y="123" type="curve" smooth="yes"/>
      <point x="389" y="123"/>
      <point x="317" y="436"/>
      <point x="317" y="738" type="curve" smooth="yes"/>
      <point x="317" y="1037"/>
      <point x="389" y="1361"/>
      <point x="751" y="1361" type="curve" smooth="yes"/>
      <point x="1114" y="1361"/>
      <point x="1187" y="1039"/>
      <point x="1187" y="738" type="curve" smooth="yes"/>
      <point x="1187" y="436"/>
      <point x="1111" y="123"/>
    </contour>
  </outline>
</glyph>
<glyph name="S" format="1">
  <advance width="1180"/>
  <unicode hex="0053"/>
  <outline>
    <contour>
      <point x="583" y="0" type="move" name="bot"/>
    </contour>
    <contour>
      <point x="599" y="1485" type="move" name="top"/>
    </contour>
    <contour>
      <point x="587" y="-17" type="curve" smooth="yes"/>
      <point x="884" y="-17"/>
      <point x="1095" y="98"/>
      <point x="1095" y="389" type="curve" smooth="yes"/>
      <point x="1095" y="677"/>
      <point x="941" y="746"/>
      <point x="710" y="830" type="curve" smooth="yes"/>
      <point x="518" y="900" type="line" smooth="yes"/>
      <point x="361" y="956"/>
      <point x="273" y="998"/>
      <point x="273" y="1147" type="curve" smooth="yes"/>
      <point x="273" y="1302"/>
      <point x="420" y="1362"/>
      <point x="585" y="1362" type="curve" smooth="yes"/>
      <point x="721" y="1362"/>
      <point x="867" y="1322"/>
      <point x="957" y="1262" type="curve"/>
      <point x="1014" y="1386" type="line"/>
      <point x="886" y="1470"/>
      <point x="732" y="1502"/>
      <point x="572" y="1502" type="curve" smooth="yes"/>
      <point x="312" y="1502"/>
      <point x="106" y="1380"/>
      <point x="106" y="1122" type="curve" smooth="yes"/>
      <point x="106" y="886"/>
      <point x="257" y="820"/>
      <point x="446" y="754" type="curve" smooth="yes"/>
      <point x="672" y="675" type="line" smooth="yes"/>
      <point x="873" y="605"/>
      <point x="932" y="555"/>
      <point x="931" y="391" type="curve" smooth="yes"/>
      <point x="931" y="181"/>
      <point x="790" y="124"/>
      <point x="593" y="124" type="curve" smooth="yes"/>
      <point x="404" y="124"/>
      <point x="227" y="212"/>
      <point x="172" y="249" type="curve"/>
      <point x="112" y="115" type="line"/>
      <point x="225" y="45"/>
      <point x="451" y="-17"/>
    </contour>
  </outline>
</glyph>
<glyph name="U" format="1">
  <advance width="1473"/>
  <unicode hex="0055"/>
  <outline>
    <contour>
      <point x="832" y="0" type="move" name="ogonek"/>
    </contour>
    <contour>
      <point x="752" y="1485" type="move" name="top"/>
    </contour>
    <contour>
      <point x="735" y="-17" type="curve" smooth="yes"/>
      <point x="1195" y="-17"/>
      <point x="1315" y="249"/>
      <point x="1315" y="681" type="curve" smooth="yes"/>
      <point x="1315" y="1485" type="line"/>
      <point x="1135" y="1485" type="line"/>
      <point x="1135" y="677" type="line" smooth="yes"/>
      <point x="1135" y="356"/>
      <point x="1103" y="114"/>
      <point x="735" y="114" type="curve" smooth="yes"/>
      <point x="370" y="114"/>
      <point x="335" y="354"/>
      <point x="335" y="677" type="curve" smooth="yes"/>
      <point x="335" y="1485" type="line"/>
      <point x="157" y="1485" type="line"/>
      <point x="157" y="681" type="line" smooth="yes"/>
      <point x="157" y="248"/>
      <point x="280" y="-17"/>
    </contour>
  </outline>
</glyph>
<glyph name="V" format="1">
  <advance width="1280"/>
  <unicode hex="0056"/>
  <outline>
    <contour>
      <point x="524" y="0" type="line"/>
      <point x="722" y="0" type="line"/>
      <point x="1244" y="1485" type="line"/>
      <point x="1070" y="1485" type="line"/>
      <point x="633" y="200" type="line"/>
      <point x="212" y="1485" type="line"/>
      <point x="37" y="1485" type="line"/>
    </contour>
  </outline>
</glyph>
<glyph name="W" format="1">
  <advance width="1988"/>
  <unicode hex="0057"/>
  <outline>
    <contour>
      <point x="1002" y="1485" type="move" name="top"/>
    </contour>
    <contour>
      <point x="430" y="0" type="line"/>
      <point x="630" y="0" type="line"/>
      <point x="998" y="1276" type="line"/>
      <point x="1355" y="0" type="line"/>
      <point x="1554" y="0" type="line"/>
      <point x="1909" y="1485" type="line"/>
      <point x="1743" y="1485" type="line"/>
      <point x="1440" y="173" type="line"/>
      <point x="1089" y="1456" type="line"/>
      <point x="909" y="1456" type="line"/>
      <point x="545" y="173" type="line"/>
      <point x="242" y="1485" type="line"/>
      <point x="79" y="1485" type="line"/>
    </contour>
  </outline>
</glyph>
<glyph name="X" format="1">
  <advance width="1229"/>
  <unicode hex="0058"/>
  <outline>
    <contour>
      <point x="34" y="0" type="line"/>
      <point x="234" y="0" type="line"/>
      <point x="612" y="622" type="line"/>
      <point x="1005" y="0" type="line"/>
      <point x="1188" y="0" type="line"/>
      <point x="702" y="753" type="line"/>
      <point x="1177" y="1485" type="line"/>
      <point x="996" y="1485" type="line"/>
      <point x="606" y="886" type="line"/>
      <point x="227" y="1485" type="line"/>
      <point x="45" y="1485" type="line"/>
      <point x="509" y="756" type="line"/>
    </contour>
  </outline>
</glyph>
<glyph name="Z" format="1">
  <advance width="1104"/>
  <unicode hex="005A"/>
  <outline>
    <contour>
      <point x="612" y="1485" type="move" name="top"/>
    </contour>
    <contour>
      <point x="111" y="0" type="line"/>
      <point x="1031" y="0" type="line"/>
      <point x="1031" y="132" type="line"/>
      <point x="301" y="132" type="line"/>
      <point x="1039" y="1366" type="line"/>
      <point x="1039" y="1485" type="line"/>
      <point x="137" y="1485" type="line"/>
      <point x="137" y="1364" type="line"/>
      <point x="848" y="1364" type="line"/>
      <point x="111" y="130" type="line"/>
    </contour>
  </outline>
</glyph>
<glyph name="backslash" format="1">
  <advance width="894"/>
  <unicode hex="005C"/>
  <outline>
    <contour>
      <point x="645" y="-163" type="line"/>
      <point x="791" y="-109" type="line"/>
      <point x="205" y="1628" type="line"/>
      <point x="60" y="1580" type="line"/>
    </contour>
  </outline>
</glyph>
<glyph name="bracketright" format="1">
  <advance width="885"/>
  <unicode hex="005D"/>
  <outline>
    <contour>
      <point x="92" y="-188" type="line"/>
      <point x="715" y="-188" type="line"/>
      <point x="715" y="1617" type="line"/>
      <point x="92" y="1617" type="line"/>
      <point x="92" y="1485" type="line"/>
      <point x="537" y="1485" type="line"/>
      <point x="537" y="-55" type="line"/>
      <point x="92" y="-55" type="line"/>
    </contour>
  </outline>
</glyph>
<glyph name="underscore" format="1">
  <advance width="1107"/>
  <unicode hex="005F"/>
  <outline>
    <contour>
      <point x="112" y="-104" type="line"/>
      <point x="995" y="-104" type="line"/>
      <point x="995" y="28" type="line"/>
      <point x="112" y="28" type="line"/>
    </contour>
  </outline>
</glyph>
<glyph name="grave" format="1">
  <advance width="741"/>
  <unicode hex="0060"/>
  <outline>
    <contour>
      <point x="534" y="1098" type="move" name="_top"/>
    </contour>
    <contour>
      <point x="533" y="1290" type="line"/>
      <point x="570" y="1334" type="line"/>
      <point x="181" y="1716" type="line"/>
      <point x="61" y="1590" type="line"/>
    </contour>
  </outline>
</glyph>
<glyph name="b" format="1">
  <advance width="1237"/>
  <unicode hex="0062"/>
  <outline>
    <contour>
      <point x="669" y="1098" type="move" name="top"/>
    </contour>
    <contour>
      <point x="656" y="-17" type="curve" smooth="yes"/>
      <point x="981" y="-17"/>
      <point x="1124" y="261"/>
      <point x="1124" y="545" type="curve" smooth="yes"/>
      <point x="1124" y="869"/>
      <point x="977" y="1115"/>
      <point x="680" y="1115" type="curve" smooth="yes"/>
      <point x="536" y="1115"/>
      <point x="420" y="1060"/>
      <point x="339" y="977" type="curve"/>
      <point x="339" y="1519" type="line"/>
      <point x="164" y="1486" type="line"/>
      <point x="164" y="0" type="line"/>
      <point x="293" y="0" type="line"/>
      <point x="319" y="136" type="line"/>
      <point x="389" y="55"/>
      <point x="495" y="-17"/>
    </contour>
    <contour>
      <point x="662" y="110" type="curve" smooth="yes"/>
      <point x="506" y="110"/>
      <point x="410" y="163"/>
      <point x="339" y="249" type="curve"/>
      <point x="339" y="858" type="line"/>
      <point x="422" y="933"/>
      <point x="530" y="983"/>
      <point x="650" y="983" type="curve" smooth="yes"/>
      <point x="853" y="983"/>
      <point x="956" y="827"/>
      <point x="956" y="549" type="curve" smooth="yes"/>
      <point x="956" y="347"/>
      <point x="897" y="110"/>
    </contour>
  </outline>
</glyph>
<glyph name="c" format="1">
  <advance width="1035"/>
  <unicode hex="0063"/>
  <outline>
    <contour>
      <point x="615" y="0" type="move" name="bot"/>
    </contour>
    <contour>
      <point x="577" y="1098" type="move" name="top"/>
    </contour>
    <contour>
      <point x="631" y="-17" type="curve" smooth="yes"/>
      <point x="751" y="-17"/>
      <point x="858" y="23"/>
      <point x="955" y="105" type="curve"/>
      <point x="900" y="215" type="line"/>
      <point x="828" y="156"/>
      <point x="738" y="110"/>
      <point x="635" y="110" type="curve" smooth="yes"/>
      <point x="389" y="110"/>
      <point x="287" y="330"/>
      <point x="287" y="545" type="curve" smooth="yes"/>
      <point x="287" y="762"/>
      <point x="376" y="984"/>
      <point x="617" y="985" type="curve" smooth="yes"/>
      <point x="721" y="985"/>
      <point x="824" y="950"/>
      <point x="902" y="879" type="curve"/>
      <point x="955" y="994" type="line"/>
      <point x="853" y="1077"/>
      <point x="738" y="1115"/>
      <point x="612" y="1115" type="curve" smooth="yes"/>
      <point x="290" y="1115"/>
      <point x="114" y="855"/>
      <point x="114" y="549" type="curve" smooth="yes"/>
      <point x="114" y="241"/>
      <point x="298" y="-17"/>
    </contour>
  </outline>
</glyph>
<glyph name="e" format="1">
  <advance width="1139"/>
  <unicode hex="0065"/>
  <outline>
    <contour>
      <point x="614" y="0" type="move" name="bot"/>
    </contour>
    <contour>
      <point x="691" y="0" type="move" name="ogonek"/>
    </contour>
    <contour>
      <point x="602" y="1098" type="move" name="top"/>
    </contour>
    <contour>
      <point x="611" y="-17" type="curve" smooth="yes"/>
      <point x="740" y="-17"/>
      <point x="905" y="26"/>
      <point x="993" y="102" type="curve"/>
      <point x="941" y="216" type="line"/>
      <point x="901" y="183"/>
      <point x="785" y="110"/>
      <point x="641" y="110" type="curve" smooth="yes"/>
      <point x="443" y="110"/>
      <point x="287" y="223"/>
      <point x="284" y="530" type="curve"/>
      <point x="1018" y="530" type="line"/>
      <point x="1024" y="564"/>
      <point x="1028" y="599"/>
      <point x="1028" y="636" type="curve" smooth="yes"/>
      <point x="1028" y="907"/>
      <point x="893" y="1115"/>
      <point x="603" y="1115" type="curve" smooth="yes"/>
      <point x="272" y="1115"/>
      <point x="113" y="844"/>
      <point x="113" y="544" type="curve" smooth="yes"/>
      <point x="113" y="231"/>
      <point x="279" y="-17"/>
    </contour>
    <contour>
      <point x="289" y="645" type="line"/>
      <point x="305" y="835"/>
      <point x="387" y="986"/>
      <point x="603" y="986" type="curve" smooth="yes"/>
      <point x="797" y="986"/>
      <point x="873" y="843"/>
      <point x="873" y="672" type="curve" smooth="yes"/>
      <point x="873" y="645" type="line"/>
    </contour>
  </outline>
</glyph>
<glyph name="g" format="1">
  <advance width="1142"/>
  <unicode hex="0067"/>
  <outline>
    <contour>
      <point x="548" y="1099" type="move" name="top"/>
    </contour>
    <contour>
      <point x="509" y="-393" type="curve" smooth="yes"/>
      <point x="798" y="-393"/>
      <point x="1053" y="-330"/>
      <point x="1053" y="-78" type="curve" smooth="yes"/>
      <point x="1053" y="186"/>
      <point x="867" y="207"/>
      <point x="626" y="207" type="curve" smooth="yes"/>
      <point x="348" y="207" type="line"/>
      <point x="348" y="207"/>
      <point x="308" y="246"/>
      <point x="308" y="304" type="curve" smooth="yes"/>
      <point x="308" y="363"/>
      <point x="352" y="438"/>
      <point x="352" y="439" type="curve"/>
      <point x="353" y="438"/>
      <point x="424" y="398"/>
      <point x="546" y="398" type="curve" smooth="yes"/>
      <point x="785" y="398"/>
      <point x="963" y="517"/>
      <point x="963" y="775" type="curve" smooth="yes"/>
      <point x="961" y="844"/>
      <point x="928" y="919"/>
      <point x="887" y="953" type="curve"/>
      <point x="1114" y="979" type="line"/>
      <point x="1104" y="1098" type="line" smooth="yes"/>
      <point x="1002" y="1097"/>
      <point x="911" y="1091"/>
      <point x="819" y="1044" type="curve"/>
      <point x="746" y="1101"/>
      <point x="647" y="1116"/>
      <point x="556" y="1116" type="curve" smooth="yes"/>
      <point x="298" y="1116"/>
      <point x="132" y="960"/>
      <point x="132" y="769" type="curve" smooth="yes"/>
      <point x="132" y="594"/>
      <point x="235" y="500"/>
      <point x="285" y="475" type="curve"/>
      <point x="188" y="389"/>
      <point x="156" y="320"/>
      <point x="156" y="260" type="curve" smooth="yes"/>
      <point x="156" y="172"/>
      <point x="229" y="114"/>
      <point x="289" y="104" type="curve"/>
      <point x="196" y="61"/>
      <point x="133" y="-16"/>
      <point x="133" y="-125" type="curve" smooth="yes"/>
      <point x="133" y="-353"/>
      <point x="319" y="-393"/>
    </contour>
    <contour>
      <point x="517" y="-261" type="curve" smooth="yes"/>
      <point x="399" y="-261"/>
      <point x="284" y="-244"/>
      <point x="284" y="-111" type="curve" smooth="yes"/>
      <point x="284" y="-38"/>
      <point x="316" y="43"/>
      <point x="375" y="80" type="curve"/>
      <point x="666" y="80" type="line" smooth="yes"/>
      <point x="796" y="80"/>
      <point x="900" y="88"/>
      <point x="900" y="-83" type="curve" smooth="yes"/>
      <point x="900" y="-246"/>
      <point x="714" y="-261"/>
    </contour>
    <contour>
      <point x="556" y="519" type="curve" smooth="yes"/>
      <point x="360" y="519"/>
      <point x="288" y="616"/>
      <point x="288" y="763" type="curve" smooth="yes"/>
      <point x="288" y="894"/>
      <point x="373" y="994"/>
      <point x="563" y="994" type="curve" smooth="yes"/>
      <point x="743" y="994"/>
      <point x="814" y="897"/>
      <point x="814" y="750" type="curve" smooth="yes"/>
      <point x="814" y="646"/>
      <point x="749" y="519"/>
    </contour>
  </outline>
</glyph>
<glyph name="h" format="1">
  <advance width="1224"/>
  <unicode hex="0068"/>
  <outline>
    <contour>
      <point x="699" y="1098" type="move" name="top"/>
    </contour>
    <contour>
      <point x="164" y="0" type="line"/>
      <point x="336" y="0" type="line"/>
      <point x="336" y="819" type="line"/>
      <point x="415" y="900"/>
      <point x="524" y="982"/>
      <point x="682" y="982" type="curve" smooth="yes"/>
      <point x="864" y="982"/>
      <point x="899" y="829"/>
      <point x="899" y="683" type="curve" smooth="yes"/>
      <point x="899" y="0" type="line"/>
      <point x="1071" y="0" type="line"/>
      <point x="1071" y="683" type="line" smooth="yes"/>
      <point x="1071" y="922"/>
      <point x="980" y="1115"/>
      <point x="697" y="1115" type="curve" smooth="yes"/>
      <point x="540" y="1115"/>
      <point x="422" y="1041"/>
      <point x="336" y="959" type="curve"/>
      <point x="336" y="1521" type="line"/>
      <point x="164" y="1486" type="line"/>
    </contour>
  </outline>
</glyph>
<glyph name="i" format="1">
  <advance width="535"/>
  <unicode hex="0069"/>
  <outline>
    <contour>
      <point x="188" y="0" type="line"/>
      <point x="359" y="0" type="line"/>
      <point x="359" y="1096" type="line"/>
      <point x="188" y="1096" type="line"/>
    </contour>
    <contour>
      <point x="279" y="1266" type="curve" smooth="yes"/>
      <point x="339" y="1266"/>
      <point x="379" y="1315"/>
      <point x="379" y="1372" type="curve" smooth="yes"/>
      <point x="379" y="1429"/>
      <point x="339" y="1480"/>
      <point x="279" y="1480" type="curve" smooth="yes"/>
      <point x="220" y="1480"/>
      <point x="175" y="1429"/>
      <point x="175" y="1372" type="curve" smooth="yes"/>
      <point x="175" y="1315"/>
      <point x="219" y="1266"/>
    </contour>
  </outline>
</glyph>
<glyph name="j" format="1">
  <advance width="561"/>
  <unicode hex="006A"/>
  <outline>
    <contour>
      <point x="49" y="-432" type="line"/>
      <point x="274" y="-377"/>
      <point x="394" y="-278"/>
      <point x="394" y="43" type="curve" smooth="yes"/>
      <point x="394" y="1096" type="line"/>
      <point x="222" y="1096" type="line"/>
      <point x="222" y="63" type="line" smooth="yes"/>
      <point x="222" y="-182"/>
      <point x="205" y="-225"/>
      <point x="3" y="-305" type="curve"/>
    </contour>
    <contour>
      <point x="309" y="1266" type="curve" smooth="yes"/>
      <point x="370" y="1266"/>
      <point x="410" y="1315"/>
      <point x="410" y="1372" type="curve" smooth="yes"/>
      <point x="410" y="1429"/>
      <point x="370" y="1480"/>
      <point x="309" y="1480" type="curve" smooth="yes"/>
      <point x="251" y="1480"/>
      <point x="206" y="1429"/>
      <point x="206" y="1372" type="curve" smooth="yes"/>
      <point x="206" y="1315"/>
      <point x="250" y="1266"/>
    </contour>
  </outline>
</glyph>
<glyph name="k" format="1">
  <advance width="1094"/>
  <unicode hex="006B"/>
  <outline>
    <contour>
      <point x="603" y="1098" type="move" name="top"/>
    </contour>
    <contour>
      <point x="603" y="0" type="move" name="bot"/>
    </contour>
    <contour>
      <point x="164" y="0" type="line"/>
      <point x="336" y="0" type="line"/>
      <point x="336" y="453" type="line"/>
      <point x="435" y="544" type="line"/>
      <point x="890" y="0" type="line"/>
      <point x="1082" y="0" type="line"/>
      <point x="563" y="618" type="line"/>
      <point x="1039" y="1096" type="line"/>
      <point x="836" y="1096" type="line"/>
      <point x="336" y="601" type="line"/>
      <point x="336" y="1521" type="line"/>
      <point x="164" y="1486" type="line"/>
    </contour>
  </outline>
</glyph>
<glyph name="m" format="1">
  <advance width="1902"/>
  <unicode hex="006D"/>
  <outline>
    <contour>
      <point x="983" y="1098" type="move" name="top"/>
    </contour>
    <contour>
      <point x="164" y="0" type="line"/>
      <point x="336" y="0" type="line"/>
      <point x="336" y="813" type="line"/>
      <point x="451" y="927"/>
      <point x="576" y="982"/>
      <point x="680" y="982" type="curve" smooth="yes"/>
      <point x="844" y="982"/>
      <point x="870" y="854"/>
      <point x="870" y="716" type="curve" smooth="yes"/>
      <point x="870" y="0" type="line"/>
      <point x="1045" y="0" type="line"/>
      <point x="1045" y="721" type="line" smooth="yes"/>
      <point x="1045" y="738"/>
      <point x="1045" y="772"/>
      <point x="1039" y="811" type="curve"/>
      <point x="1159" y="935"/>
      <point x="1273" y="982"/>
      <point x="1386" y="982" type="curve" smooth="yes"/>
      <point x="1550" y="982"/>
      <point x="1573" y="854"/>
      <point x="1573" y="716" type="curve" smooth="yes"/>
      <point x="1573" y="0" type="line"/>
      <point x="1747" y="0" type="line"/>
      <point x="1747" y="715" type="line" smooth="yes"/>
      <point x="1747" y="927"/>
      <point x="1649" y="1115"/>
      <point x="1412" y="1115" type="curve" smooth="yes"/>
      <point x="1283" y="1115"/>
      <point x="1135" y="1069"/>
      <point x="1010" y="921" type="curve"/>
      <point x="971" y="1020"/>
      <point x="886" y="1115"/>
      <point x="708" y="1115" type="curve" smooth="yes"/>
      <point x="578" y="1115"/>
      <point x="452" y="1069"/>
      <point x="318" y="932" type="curve"/>
      <point x="293" y="1098" type="line"/>
      <point x="164" y="1098" type="line"/>
    </contour>
  </outline>
</glyph>
<glyph name="n" format="1">
  <advance width="1224"/>
  <unicode hex="006E"/>
  <outline>
    <contour>
      <point x="653" y="1098" type="move" name="top"/>
    </contour>
    <contour>
      <point x="650" y="0" type="move" name="bot"/>
    </contour>
    <contour>
      <point x="164" y="0" type="line"/>
      <point x="336" y="0" type="line"/>
      <point x="336" y="820" type="line"/>
      <point x="416" y="901"/>
      <point x="527" y="982"/>
      <point x="686" y="982" type="curve" smooth="yes"/>
      <point x="868" y="982"/>
      <point x="899" y="829"/>
      <point x="899" y="680" type="curve" smooth="yes"/>
      <point x="899" y="0" type="line"/>
      <point x="1071" y="0" type="line"/>
      <point x="1071" y="680" type="line" smooth="yes"/>
      <point x="1071" y="923"/>
      <point x="980" y="1116"/>
      <point x="697" y="1116" type="curve" smooth="yes"/>
      <point x="528" y="1116"/>
      <point x="405" y="1031"/>
      <point x="318" y="942" type="curve"/>
      <point x="293" y="1096" type="line"/>
      <point x="164" y="1096" type="line"/>
    </contour>
  </outline>
</glyph>
<glyph name="o" format="1">
  <advance width="1228"/>
  <unicode hex="006F"/>
  <outline>
    <contour>
      <point x="671" y="0" type="move" name="ogonek"/>
    </contour>
    <contour>
      <point x="617" y="1098" type="move" name="top"/>
    </contour>
    <contour>
      <point x="614" y="116" type="curve" smooth="yes"/>
      <point x="377" y="116"/>
      <point x="287" y="332"/>
      <point x="287" y="551" type="curve" smooth="yes"/>
      <point x="287" y="767"/>
      <point x="375" y="982"/>
      <point x="614" y="982" type="curve" smooth="yes"/>
      <point x="854" y="982"/>
      <point x="942" y="767"/>
      <point x="942" y="551" type="curve" smooth="yes"/>
      <point x="942" y="332"/>
      <point x="852" y="116"/>
    </contour>
    <contour>
      <point x="614" y="-17" type="curve" smooth="yes"/>
      <point x="951" y="-17"/>
      <point x="1115" y="235"/>
      <point x="1115" y="547" type="curve" smooth="yes"/>
      <point x="1115" y="858"/>
      <point x="951" y="1115"/>
      <point x="614" y="1115" type="curve" smooth="yes"/>
      <point x="277" y="1115"/>
      <point x="113" y="858"/>
      <point x="113" y="547" type="curve" smooth="yes"/>
      <point x="113" y="235"/>
      <point x="277" y="-17"/>
    </contour>
  </outline>
</glyph>
<glyph name="p" format="1">
  <advance width="1206"/>
  <unicode hex="0070"/>
  <outline>
    <contour>
      <point x="638" y="1098" type="move" name="top"/>
    </contour>
    <contour>
      <point x="151" y="-451" type="line"/>
      <point x="326" y="-428" type="line"/>
      <point x="326" y="99" type="line"/>
      <point x="395" y="34"/>
      <point x="492" y="-17"/>
      <point x="626" y="-17" type="curve" smooth="yes"/>
      <point x="951" y="-17"/>
      <point x="1094" y="263"/>
      <point x="1094" y="545" type="curve" smooth="yes"/>
      <point x="1094" y="867"/>
      <point x="947" y="1115"/>
      <point x="650" y="1115" type="curve" smooth="yes"/>
      <point x="501" y="1115"/>
      <point x="387" y="1057"/>
      <point x="308" y="975" type="curve"/>
      <point x="280" y="1098" type="line"/>
      <point x="151" y="1098" type="line"/>
    </contour>
    <contour>
      <point x="619" y="109" type="curve" smooth="yes"/>
      <point x="486" y="109"/>
      <point x="396" y="157"/>
      <point x="326" y="232" type="curve"/>
      <point x="326" y="870" type="line"/>
      <point x="407" y="938"/>
      <point x="508" y="982"/>
      <point x="621" y="982" type="curve" smooth="yes"/>
      <point x="825" y="981"/>
      <point x="926" y="823"/>
      <point x="926" y="549" type="curve" smooth="yes"/>
      <point x="926" y="302"/>
      <point x="846" y="109"/>
    </contour>
  </outline>
</glyph>
<glyph name="q" format="1">
  <advance width="1205"/>
  <unicode hex="0071"/>
  <outline>
    <contour>
      <point x="1056" y="-429" type="line"/>
      <point x="1056" y="1098" type="line"/>
      <point x="926" y="1098" type="line"/>
      <point x="899" y="975" type="line"/>
      <point x="820" y="1057"/>
      <point x="705" y="1115"/>
      <point x="556" y="1115" type="curve" smooth="yes"/>
      <point x="259" y="1115"/>
      <point x="113" y="867"/>
      <point x="113" y="545" type="curve" smooth="yes"/>
      <point x="113" y="263"/>
      <point x="256" y="-17"/>
      <point x="581" y="-17" type="curve" smooth="yes"/>
      <point x="714" y="-17"/>
      <point x="811" y="34"/>
      <point x="881" y="99" type="curve"/>
      <point x="881" y="-450" type="line"/>
    </contour>
    <contour>
      <point x="588" y="109" type="curve" smooth="yes"/>
      <point x="361" y="109"/>
      <point x="280" y="302"/>
      <point x="280" y="549" type="curve" smooth="yes"/>
      <point x="280" y="823"/>
      <point x="382" y="981"/>
      <point x="586" y="982" type="curve" smooth="yes"/>
      <point x="698" y="982"/>
      <point x="800" y="939"/>
      <point x="881" y="870" type="curve"/>
      <point x="881" y="232" type="line"/>
      <point x="811" y="157"/>
      <point x="720" y="109"/>
    </contour>
  </outline>
</glyph>
<glyph name="s" format="1">
  <advance width="1000"/>
  <unicode hex="0073"/>
  <outline>
    <contour>
      <point x="509" y="1099" type="move" name="top"/>
    </contour>
    <contour>
      <point x="507" y="-3" type="move" name="bot"/>
    </contour>
    <contour>
      <point x="740" y="282" type="curve" smooth="yes"/>
      <point x="734" y="147"/>
      <point x="614" y="113"/>
      <point x="510" y="113" type="curve" smooth="yes"/>
      <point x="410" y="113"/>
      <point x="285" y="163"/>
      <point x="199" y="221" type="curve"/>
      <point x="147" y="103" type="line"/>
      <point x="226" y="39"/>
      <point x="370" y="-20"/>
      <point x="522" y="-20" type="curve" smooth="yes"/>
      <point x="727" y="-20"/>
      <point x="899" y="74"/>
      <point x="899" y="310" type="curve" smooth="yes"/>
      <point x="900" y="499"/>
      <point x="790" y="569"/>
      <point x="628" y="619" type="curve" smooth="yes"/>
      <point x="430" y="680" type="line" smooth="yes"/>
      <point x="316" y="716"/>
      <point x="290" y="756"/>
      <point x="290" y="835" type="curve" smooth="yes"/>
      <point x="293" y="960"/>
      <point x="414" y="983"/>
      <point x="515" y="983" type="curve" smooth="yes"/>
      <point x="621" y="983"/>
      <point x="720" y="957"/>
      <point x="797" y="907" type="curve"/>
      <point x="856" y="1014" type="line"/>
      <point x="777" y="1074"/>
      <point x="654" y="1116"/>
      <point x="496" y="1116" type="curve" smooth="yes"/>
      <point x="318" y="1116"/>
      <point x="128" y="1031"/>
      <point x="128" y="825" type="curve" smooth="yes"/>
      <point x="128" y="656"/>
      <point x="226" y="580"/>
      <point x="376" y="536" type="curve" smooth="yes"/>
      <point x="584" y="475" type="line" smooth="yes"/>
      <point x="699" y="441"/>
      <point x="745" y="403"/>
    </contour>
  </outline>
</glyph>
<glyph name="u" format="1">
  <advance width="1240"/>
  <unicode hex="0075"/>
  <outline>
    <contour>
      <point x="1010" y="0" type="move" name="ogonek"/>
    </contour>
    <contour>
      <point x="624" y="1098" type="move" name="top"/>
    </contour>
    <contour>
      <point x="538" y="-17" type="curve" smooth="yes"/>
      <point x="731" y="-17"/>
      <point x="846" y="73"/>
      <point x="922" y="157" type="curve"/>
      <point x="948" y="0" type="line"/>
      <point x="1077" y="0" type="line"/>
      <point x="1077" y="1098" type="line"/>
      <point x="901" y="1098" type="line"/>
      <point x="901" y="280" type="line"/>
      <point x="811" y="190"/>
      <point x="728" y="116"/>
      <point x="548" y="116" type="curve" smooth="yes"/>
      <point x="372" y="116"/>
      <point x="330" y="248"/>
      <point x="330" y="404" type="curve" smooth="yes"/>
      <point x="330" y="1098" type="line"/>
      <point x="155" y="1098" type="line"/>
      <point x="155" y="404" type="line" smooth="yes"/>
      <point x="155" y="135"/>
      <point x="271" y="-17"/>
    </contour>
  </outline>
</glyph>
<glyph name="v" format="1">
  <advance width="1080"/>
  <unicode hex="0076"/>
  <outline>
    <contour>
      <point x="457" y="0" type="line"/>
      <point x="623" y="0" type="line"/>
      <point x="1020" y="1096" type="line"/>
      <point x="854" y="1096" type="line"/>
      <point x="547" y="198" type="line"/>
      <point x="233" y="1096" type="line"/>
      <point x="59" y="1096" type="line"/>
    </contour>
  </outline>
</glyph>
<glyph name="w" format="1">
  <advance width="1584"/>
  <unicode hex="0077"/>
  <outline>
    <contour>
      <point x="801" y="1098" type="move" name="top"/>
    </contour>
    <contour>
      <point x="1044" y="0" type="line"/>
      <point x="1230" y="0" type="line"/>
      <point x="1524" y="1098" type="line"/>
      <point x="1359" y="1098" type="line"/>
      <point x="1142" y="140" type="line"/>
      <point x="893" y="1098" type="line"/>
      <point x="707" y="1098" type="line"/>
      <point x="444" y="142" type="line"/>
      <point x="222" y="1098" type="line"/>
      <point x="61" y="1098" type="line"/>
      <point x="349" y="0" type="line"/>
      <point x="533" y="0" type="line"/>
      <point x="800" y="948" type="line"/>
    </contour>
  </outline>
</glyph>
<glyph name="x" format="1">
  <advance width="1047"/>
  <unicode hex="0078"/>
  <outline>
    <contour>
      <point x="65" y="0" type="line"/>
      <point x="243" y="0" type="line"/>
      <point x="525" y="441" type="line"/>
      <point x="797" y="0" type="line"/>
      <point x="973" y="0" type="line"/>
      <point x="611" y="549" type="line"/>
      <point x="979" y="1096" type="line"/>
      <point x="802" y="1096" type="line"/>
      <point x="519" y="667" type="line"/>
      <point x="238" y="1096" type="line"/>
      <point x="60" y="1096" type="line"/>
      <point x="432" y="549" type="line"/>
    </contour>
  </outline>
</glyph>
<glyph name="y" format="1">
  <advance width="1086"/>
  <unicode hex="0079"/>
  <outline>
    <contour>
      <point x="569" y="1096" type="move" name="top"/>
    </contour>
    <contour>
      <point x="203" y="-398" type="line"/>
      <point x="464" y="-398"/>
      <point x="542" y="-243"/>
      <point x="616" y="-35" type="curve" smooth="yes"/>
      <point x="1027" y="1096" type="line"/>
      <point x="848" y="1096" type="line"/>
      <point x="562" y="204" type="line"/>
      <point x="227" y="1096" type="line"/>
      <point x="59" y="1096" type="line"/>
      <point x="482" y="22" type="line"/>
      <point x="424" y="-176"/>
      <point x="378" y="-275"/>
      <point x="166" y="-285" type="curve"/>
    </contour>
  </outline>
</glyph>
<glyph name="z" format="1">
  <advance width="936"/>
  <unicode hex="007A"/>
  <outline>
    <contour>
      <point x="499" y="1096" type="move" name="top"/>
    </contour>
    <contour>
      <point x="103" y="0" type="line"/>
      <point x="834" y="0" type="line"/>
      <point x="834" y="133" type="line"/>
      <point x="288" y="133" type="line"/>
      <point x="844" y="980" type="line"/>
      <point x="844" y="1096" type="line"/>
      <point x="132" y="1096" type="line"/>
      <point x="132" y="967" type="line"/>
      <point x="670" y="967" type="line"/>
      <point x="103" y="126" type="line"/>
    </contour>
  </outline>
</glyph>
<glyph name="braceleft" format="1">
  <advance width="801"/>
  <unicode hex="007B"/>
  <outline>
    <contour>
      <point x="695" y="-158" type="curve"/>
      <point x="695" y="-39" type="line"/>
      <point x="530" y="-38"/>
      <point x="474" y="20"/>
      <point x="471" y="258" type="curve" smooth="yes"/>
      <point x="467" y="575"/>
      <point x="431" y="667"/>
      <point x="227" y="691" type="curve"/>
      <point x="431" y="714"/>
      <point x="467" y="806"/>
      <point x="471" y="1123" type="curve" smooth="yes"/>
      <point x="474" y="1363"/>
      <point x="533" y="1420"/>
      <point x="695" y="1421" type="curve"/>
      <point x="695" y="1540" type="line"/>
      <point x="392" y="1540"/>
      <point x="295" y="1468"/>
      <point x="295" y="1098" type="curve" smooth="yes"/>
      <point x="295" y="803"/>
      <point x="249" y="768"/>
      <point x="90" y="768" type="curve"/>
      <point x="90" y="614" type="line"/>
      <point x="246" y="614"/>
      <point x="295" y="578"/>
      <point x="295" y="284" type="curve" smooth="yes"/>
      <point x="295" y="-86"/>
      <point x="392" y="-158"/>
    </contour>
  </outline>
</glyph>
<glyph name="bar" format="1">
  <advance width="658"/>
  <unicode hex="007C"/>
  <outline>
    <contour>
      <point x="247" y="-103" type="line"/>
      <point x="412" y="-103" type="line"/>
      <point x="412" y="1595" type="line"/>
      <point x="247" y="1595" type="line"/>
    </contour>
  </outline>
</glyph>
<glyph name="braceright" format="1">
  <advance width="801"/>
  <unicode hex="007D"/>
  <outline>
    <contour>
      <point x="107" y="-158" type="line"/>
      <point x="410" y="-158"/>
      <point x="508" y="-86"/>
      <point x="508" y="284" type="curve" smooth="yes"/>
      <point x="508" y="578"/>
      <point x="556" y="614"/>
      <point x="713" y="614" type="curve"/>
      <point x="713" y="768" type="line"/>
      <point x="553" y="768"/>
      <point x="508" y="803"/>
      <point x="508" y="1098" type="curve" smooth="yes"/>
      <point x="508" y="1468"/>
      <point x="410" y="1540"/>
      <point x="107" y="1540" type="curve"/>
      <point x="107" y="1421" type="line"/>
      <point x="269" y="1420"/>
      <point x="329" y="1363"/>
      <point x="332" y="1123" type="curve" smooth="yes"/>
      <point x="336" y="806"/>
      <point x="371" y="714"/>
      <point x="575" y="691" type="curve"/>
      <point x="371" y="667"/>
      <point x="336" y="575"/>
      <point x="332" y="258" type="curve" smooth="yes"/>
      <point x="329" y="20"/>
      <point x="272" y="-38"/>
      <point x="107" y="-39" type="curve"/>
    </contour>
  </outline>
</glyph>
<glyph name="cent" format="1">
  <advance width="1010"/>
  <unicode hex="00A2"/>
  <outline>
    <component base="c" yScale="0.9292" yOffset="75"/>
    <contour>
      <point x="551" y="-193" type="line"/>
      <point x="642" y="-193" type="line"/>
      <point x="642" y="1354" type="line"/>
      <point x="551" y="1354" type="line"/>
    </contour>
  </outline>
</glyph>
<glyph name="sterling" format="1">
  <advance width="1076"/>
  <unicode hex="00A3"/>
  <outline>
    <contour>
      <point x="156" y="0" type="line"/>
      <point x="904" y="0" type="line"/>
      <point x="904" y="122" type="line"/>
      <point x="323" y="122" type="line"/>
      <point x="415" y="202"/>
      <point x="477" y="317"/>
      <point x="477" y="432" type="curve" smooth="yes"/>
      <point x="477" y="478"/>
      <point x="468" y="525"/>
      <point x="445" y="568" type="curve"/>
      <point x="838" y="568" type="line"/>
      <point x="838" y="657" type="line"/>
      <point x="411" y="657" type="line"/>
      <point x="356" y="738"/>
      <point x="325" y="834"/>
      <point x="325" y="904" type="curve" smooth="yes"/>
      <point x="325" y="1054"/>
      <point x="434" y="1116"/>
      <point x="572" y="1116" type="curve" smooth="yes"/>
      <point x="670" y="1116"/>
      <point x="782" y="1087"/>
      <point x="889" y="1033" type="curve"/>
      <point x="935" y="1146" type="line"/>
      <point x="813" y="1212"/>
      <point x="678" y="1246"/>
      <point x="556" y="1246" type="curve" smooth="yes"/>
      <point x="347" y="1246"/>
      <point x="173" y="1143"/>
      <point x="173" y="916" type="curve" smooth="yes"/>
      <point x="173" y="832"/>
      <point x="206" y="737"/>
      <point x="269" y="657" type="curve"/>
      <point x="104" y="657" type="line"/>
      <point x="104" y="568" type="line"/>
      <point x="314" y="568" type="line"/>
      <point x="333" y="529"/>
      <point x="342" y="487"/>
      <point x="342" y="446" type="curve" smooth="yes"/>
      <point x="342" y="327"/>
      <point x="267" y="203"/>
      <point x="156" y="116" type="curve"/>
    </contour>
  </outline>
</glyph>
<glyph name="dieresis" format="1">
  <advance width="942"/>
  <unicode hex="00A8"/>
  <outline>
    <contour>
      <point x="483" y="1098" type="move" name="_top"/>
    </contour>
    <contour>
      <point x="243" y="1243" type="curve" smooth="yes"/>
      <point x="303" y="1243"/>
      <point x="343" y="1292"/>
      <point x="343" y="1350" type="curve" smooth="yes"/>
      <point x="343" y="1407"/>
      <point x="303" y="1456"/>
      <point x="243" y="1456" type="curve" smooth="yes"/>
      <point x="184" y="1456"/>
      <point x="140" y="1407"/>
      <point x="140" y="1350" type="curve" smooth="yes"/>
      <point x="140" y="1291"/>
      <point x="183" y="1243"/>
    </contour>
    <contour>
      <point x="700" y="1243" type="curve" smooth="yes"/>
      <point x="760" y="1243"/>
      <point x="800" y="1292"/>
      <point x="800" y="1350" type="curve" smooth="yes"/>
      <point x="800" y="1407"/>
      <point x="760" y="1456"/>
      <point x="700" y="1456" type="curve" smooth="yes"/>
      <point x="642" y="1456"/>
      <point x="597" y="1407"/>
      <point x="597" y="1350" type="curve" smooth="yes"/>
      <point x="597" y="1291"/>
      <point x="641" y="1243"/>
    </contour>
  </outline>
</glyph>
<glyph name="copyright" format="1">
  <advance width="1817"/>
  <unicode hex="00A9"/>
  <outline>
    <contour>
      <point x="901" y="1254" type="curve" smooth="yes"/>
      <point x="605" y="1247"/>
      <point x="419" y="1054"/>
      <point x="419" y="760" type="curve" smooth="yes"/>
      <point x="419" y="460"/>
      <point x="609" y="265"/>
      <point x="913" y="265" type="curve" smooth="yes"/>
      <point x="1048" y="265"/>
      <point x="1194" y="316"/>
      <point x="1276" y="392" type="curve"/>
      <point x="1223" y="472" type="line"/>
      <point x="1145" y="400"/>
      <point x="1029" y="357"/>
      <point x="919" y="357" type="curve" smooth="yes"/>
      <point x="692" y="357"/>
      <point x="553" y="509"/>
      <point x="553" y="760" type="curve" smooth="yes"/>
      <point x="553" y="1005"/>
      <point x="687" y="1157"/>
      <point x="902" y="1162" type="curve" smooth="yes"/>
      <point x="1018" y="1166"/>
      <point x="1138" y="1125"/>
      <point x="1215" y="1053" type="curve"/>
      <point x="1278" y="1126" type="line"/>
      <point x="1196" y="1205"/>
      <point x="1045" y="1257"/>
    </contour>
    <contour>
      <point x="909" y="83" type="curve" smooth="yes"/>
      <point x="494" y="83"/>
      <point x="233" y="335"/>
      <point x="233" y="748" type="curve" smooth="yes"/>
      <point x="233" y="1161"/>
      <point x="494" y="1414"/>
      <point x="909" y="1414" type="curve" smooth="yes"/>
      <point x="1324" y="1414"/>
      <point x="1584" y="1161"/>
      <point x="1584" y="748" type="curve" smooth="yes"/>
      <point x="1584" y="335"/>
      <point x="1324" y="83"/>
    </contour>
    <contour>
      <point x="909" y="-17" type="curve" smooth="yes"/>
      <point x="1400" y="-17"/>
      <point x="1711" y="283"/>
      <point x="1711" y="748" type="curve" smooth="yes"/>
      <point x="1711" y="1213"/>
      <point x="1400" y="1513"/>
      <point x="909" y="1513" type="curve" smooth="yes"/>
      <point x="418" y="1513"/>
      <point x="107" y="1213"/>
      <point x="107" y="748" type="curve" smooth="yes"/>
      <point x="107" y="283"/>
      <point x="418" y="-17"/>
    </contour>
  </outline>
</glyph>
<glyph name="registered" format="1">
  <advance width="1817"/>
  <unicode hex="00AE"/>
  <outline>
    <contour>
      <point x="638" y="353" type="line"/>
      <point x="738" y="353" type="line"/>
      <point x="738" y="735" type="line"/>
      <point x="897" y="735" type="line" smooth="yes"/>
      <point x="1085" y="735"/>
      <point x="1113" y="694"/>
      <point x="1121" y="554" type="curve" smooth="yes"/>
      <point x="1134" y="353" type="line"/>
      <point x="1225" y="353" type="line"/>
      <point x="1214" y="566" type="line" smooth="yes"/>
      <point x="1207" y="682"/>
      <point x="1159" y="768"/>
      <point x="1069" y="775" type="curve"/>
      <point x="1156" y="796"/>
      <point x="1222" y="858"/>
      <point x="1222" y="959" type="curve" smooth="yes"/>
      <point x="1222" y="1177"/>
      <point x="1044" y="1178"/>
      <point x="854" y="1178" type="curve" smooth="yes"/>
      <point x="638" y="1178" type="line"/>
    </contour>
    <contour>
      <point x="738" y="804" type="line"/>
      <point x="738" y="1104" type="line"/>
      <point x="854" y="1104" type="line" smooth="yes"/>
      <point x="996" y="1104"/>
      <point x="1134" y="1117"/>
      <point x="1134" y="954" type="curve" smooth="yes"/>
      <point x="1134" y="815"/>
      <point x="1033" y="804"/>
      <point x="927" y="804" type="curve" smooth="yes"/>
    </contour>
    <contour>
      <point x="909" y="83" type="curve" smooth="yes"/>
      <point x="494" y="83"/>
      <point x="234" y="335"/>
      <point x="234" y="748" type="curve" smooth="yes"/>
      <point x="234" y="1161"/>
      <point x="494" y="1414"/>
      <point x="909" y="1414" type="curve" smooth="yes"/>
      <point x="1324" y="1414"/>
      <point x="1585" y="1161"/>
      <point x="1585" y="748" type="curve" smooth="yes"/>
      <point x="1585" y="335"/>
      <point x="1324" y="83"/>
    </contour>
    <contour>
      <point x="909" y="-17" type="curve" smooth="yes"/>
      <point x="1400" y="-17"/>
      <point x="1711" y="283"/>
      <point x="1711" y="748" type="curve" smooth="yes"/>
      <point x="1711" y="1213"/>
      <point x="1400" y="1513"/>
      <point x="909" y="1513" type="curve" smooth="yes"/>
      <point x="418" y="1513"/>
      <point x="107" y="1213"/>
      <point x="107" y="748" type="curve" smooth="yes"/>
      <point x="107" y="283"/>
      <point x="418" y="-17"/>
    </contour>
  </outline>
</glyph>
<glyph name="degree" format="1">
  <advance width="784"/>
  <unicode hex="00B0"/>
  <outline>
    <contour>
      <point x="389" y="703" type="curve" smooth="yes"/>
      <point x="314" y="703"/>
      <point x="254" y="768"/>
      <point x="254" y="842" type="curve" smooth="yes"/>
      <point x="254" y="918"/>
      <point x="311" y="982"/>
      <point x="389" y="982" type="curve" smooth="yes"/>
      <point x="468" y="982"/>
      <point x="521" y="919"/>
      <point x="521" y="842" type="curve" smooth="yes"/>
      <point x="521" y="766"/>
      <point x="468" y="703"/>
    </contour>
    <contour>
      <point x="391" y="620" type="curve" smooth="yes"/>
      <point x="520" y="620"/>
      <point x="610" y="715"/>
      <point x="610" y="843" type="curve" smooth="yes"/>
      <point x="610" y="969"/>
      <point x="519" y="1066"/>
      <point x="391" y="1066" type="curve" smooth="yes"/>
      <point x="261" y="1066"/>
      <point x="164" y="973"/>
      <point x="164" y="842" type="curve" smooth="yes"/>
      <point x="164" y="711"/>
      <point x="263" y="620"/>
    </contour>
  </outline>
</glyph>
<glyph name="plusminus" format="1">
  <advance width="968"/>
  <unicode hex="00B1"/>
  <outline>
    <contour>
      <point x="420" y="159" type="line"/>
      <point x="549" y="159" type="line"/>
      <point x="549" y="482" type="line"/>
      <point x="845" y="482" type="line"/>
      <point x="845" y="604" type="line"/>
      <point x="549" y="604" type="line"/>
      <point x="549" y="928" type="line"/>
      <point x="420" y="928" type="line"/>
      <point x="420" y="604" type="line"/>
      <point x="125" y="604" type="line"/>
      <point x="125" y="482" type="line"/>
      <point x="420" y="482" type="line"/>
    </contour>
    <contour>
      <point x="157" y="-53" type="line"/>
      <point x="814" y="-53" type="line"/>
      <point x="814" y="80" type="line"/>
      <point x="157" y="80" type="line"/>
    </contour>
  </outline>
</glyph>
<glyph name="periodcentered" format="1">
  <advance width="618"/>
  <unicode hex="00B7"/>
  <outline>
    <contour>
      <point x="415" y="501" type="curve" smooth="yes"/>
      <point x="475" y="501"/>
      <point x="515" y="550"/>
      <point x="515" y="607" type="curve" smooth="yes"/>
      <point x="515" y="664"/>
      <point x="475" y="713"/>
      <point x="415" y="713" type="curve" smooth="yes"/>
      <point x="357" y="713"/>
      <point x="312" y="664"/>
      <point x="312" y="607" type="curve" smooth="yes"/>
      <point x="312" y="549"/>
      <point x="356" y="501"/>
    </contour>
  </outline>
</glyph>
<glyph name="cedilla" format="1">
  <advance width="675"/>
  <unicode hex="00B8"/>
  <outline>
    <contour>
      <point x="196" y="0" type="move" name="_bot"/>
    </contour>
    <contour>
      <point x="222" y="-419" type="curve" smooth="yes"/>
      <point x="354" y="-419"/>
      <point x="421" y="-335"/>
      <point x="421" y="-247" type="curve"/>
      <point x="421" y="-165"/>
      <point x="360" y="-80"/>
      <point x="230" y="-68" type="curve"/>
      <point x="243" y="1" type="line"/>
      <point x="139" y="1" type="line"/>
      <point x="128" y="-111" type="line"/>
      <point x="250" y="-121"/>
      <point x="286" y="-170"/>
      <point x="286" y="-225" type="curve" smooth="yes"/>
      <point x="286" y="-294"/>
      <point x="245" y="-321"/>
      <point x="189" y="-321" type="curve" smooth="yes"/>
      <point x="150" y="-321"/>
      <point x="102" y="-306"/>
      <point x="55" y="-282" type="curve"/>
      <point x="27" y="-357" type="line"/>
      <point x="85" y="-398"/>
      <point x="157" y="-419"/>
    </contour>
  </outline>
</glyph>
<glyph name="uni00B9" format="1">
  <advance width="813"/>
  <unicode hex="00B9"/>
  <outline>
    <contour>
      <point x="447" y="547" type="line"/>
      <point x="603" y="547" type="line"/>
      <point x="603" y="1560" type="line"/>
      <point x="473" y="1584" type="line"/>
      <point x="250" y="1494" type="line"/>
      <point x="285" y="1389" type="line"/>
      <point x="447" y="1459" type="line"/>
    </contour>
  </outline>
</glyph>
<glyph name="onequarter" format="1">
  <advance width="1803"/>
  <unicode hex="00BC"/>
  <outline>
    <contour>
      <point x="1578" y="-17" type="line"/>
      <point x="1578" y="240" type="line"/>
      <point x="1720" y="240" type="line"/>
      <point x="1720" y="342" type="line"/>
      <point x="1578" y="342" type="line"/>
      <point x="1578" y="1022" type="line"/>
      <point x="1453" y="1050" type="line"/>
      <point x="944" y="342" type="line"/>
      <point x="964" y="240" type="line"/>
      <point x="1444" y="240" type="line"/>
      <point x="1444" y="0" type="line"/>
    </contour>
    <contour>
      <point x="335" y="619" type="line"/>
      <point x="483" y="619" type="line"/>
      <point x="483" y="1498" type="line"/>
      <point x="362" y="1522" type="line"/>
      <point x="142" y="1433" type="line"/>
      <point x="174" y="1345" type="line"/>
      <point x="335" y="1414" type="line"/>
    </contour>
    <contour>
      <point x="451" y="-30" type="line"/>
      <point x="1428" y="1517" type="line"/>
      <point x="1324" y="1576" type="line"/>
      <point x="349" y="29" type="line"/>
    </contour>
    <contour>
      <point x="1085" y="341" type="line"/>
      <point x="1444" y="854" type="line"/>
      <point x="1444" y="341" type="line"/>
    </contour>
  </outline>
</glyph>
<glyph name="threequarters" format="1">
  <advance width="2048"/>
  <unicode hex="00BE"/>
  <outline>
    <contour>
      <point x="417" y="572" type="curve" smooth="yes"/>
      <point x="571" y="572"/>
      <point x="737" y="649"/>
      <point x="737" y="827" type="curve" smooth="yes"/>
      <point x="737" y="962"/>
      <point x="664" y="1057"/>
      <point x="514" y="1084" type="curve"/>
      <point x="645" y="1104"/>
      <point x="710" y="1203"/>
      <point x="710" y="1306" type="curve" smooth="yes"/>
      <point x="710" y="1484"/>
      <point x="547" y="1544"/>
      <point x="397" y="1544" type="curve" smooth="yes"/>
      <point x="313" y="1544"/>
      <point x="215" y="1518"/>
      <point x="145" y="1484" type="curve"/>
      <point x="182" y="1382" type="line"/>
      <point x="249" y="1416"/>
      <point x="319" y="1435"/>
      <point x="392" y="1435" type="curve" smooth="yes"/>
      <point x="495" y="1435"/>
      <point x="580" y="1409"/>
      <point x="580" y="1291" type="curve" smooth="yes"/>
      <point x="580" y="1168"/>
      <point x="471" y="1134"/>
      <point x="367" y="1136" type="curve"/>
      <point x="367" y="1038" type="line"/>
      <point x="488" y="1025"/>
      <point x="604" y="975"/>
      <point x="603" y="840" type="curve" smooth="yes"/>
      <point x="603" y="723"/>
      <point x="520" y="679"/>
      <point x="411" y="679" type="curve" smooth="yes"/>
      <point x="332" y="679"/>
      <point x="234" y="704"/>
      <point x="164" y="744" type="curve"/>
      <point x="123" y="641" type="line"/>
      <point x="209" y="597"/>
      <point x="319" y="572"/>
    </contour>
    <contour>
      <point x="1772" y="-17" type="line"/>
      <point x="1772" y="240" type="line"/>
      <point x="1914" y="240" type="line"/>
      <point x="1914" y="342" type="line"/>
      <point x="1772" y="342" type="line"/>
      <point x="1772" y="1067" type="line"/>
      <point x="1663" y="1095" type="line"/>
      <point x="1131" y="342" type="line"/>
      <point x="1151" y="240" type="line"/>
      <point x="1648" y="240" type="line"/>
      <point x="1648" y="0" type="line"/>
    </contour>
    <contour>
      <point x="610" y="-30" type="line"/>
      <point x="1587" y="1517" type="line"/>
      <point x="1481" y="1576" type="line"/>
      <point x="507" y="29" type="line"/>
    </contour>
    <contour>
      <point x="1270" y="341" type="line"/>
      <point x="1648" y="885" type="line"/>
      <point x="1648" y="341" type="line"/>
    </contour>
  </outline>
</glyph>
<glyph name="AE" format="1">
  <advance width="1661"/>
  <unicode hex="00C6"/>
  <outline>
    <contour>
      <point x="1097" y="1485" type="move" name="top"/>
    </contour>
    <contour>
      <point x="-39" y="0" type="line"/>
      <point x="149" y="0" type="line"/>
      <point x="330" y="349" type="line"/>
      <point x="853" y="349" type="line"/>
      <point x="853" y="0" type="line"/>
      <point x="1639" y="0" type="line"/>
      <point x="1639" y="133" type="line"/>
      <point x="1006" y="133" type="line"/>
      <point x="1006" y="720" type="line"/>
      <point x="1572" y="720" type="line"/>
      <point x="1572" y="838" type="line"/>
      <point x="1004" y="838" type="line"/>
      <point x="1004" y="1354" type="line"/>
      <point x="1612" y="1354" type="line"/>
      <point x="1612" y="1486" type="line"/>
      <point x="737" y="1486" type="line"/>
    </contour>
    <contour>
      <point x="386" y="462" type="line"/>
      <point x="851" y="1372" type="line"/>
      <point x="851" y="462" type="line"/>
    </contour>
  </outline>
</glyph>
<glyph name="multiply" format="1">
  <advance width="978"/>
  <unicode hex="00D7"/>
  <outline>
    <contour>
      <point x="186" y="120" type="line"/>
      <point x="485" y="419" type="line"/>
      <point x="783" y="120" type="line"/>
      <point x="878" y="214" type="line"/>
      <point x="579" y="513" type="line"/>
      <point x="878" y="812" type="line"/>
      <point x="783" y="906" type="line"/>
      <point x="485" y="607" type="line"/>
      <point x="186" y="906" type="line"/>
      <point x="92" y="812" type="line"/>
      <point x="391" y="513" type="line"/>
      <point x="92" y="214" type="line"/>
    </contour>
  </outline>
</glyph>
<glyph name="germandbls" format="1">
  <advance width="1301"/>
  <unicode hex="00DF"/>
  <outline>
    <contour>
      <point x="496" y="-119" type="line"/>
      <point x="824" y="-119"/>
      <point x="1220" y="-36"/>
      <point x="1220" y="372" type="curve" smooth="yes"/>
      <point x="1220" y="624"/>
      <point x="1072" y="795"/>
      <point x="817" y="795" type="curve"/>
      <point x="980" y="814"/>
      <point x="1049" y="954"/>
      <point x="1049" y="1107" type="curve" smooth="yes"/>
      <point x="1049" y="1398"/>
      <point x="845" y="1486"/>
      <point x="589" y="1486" type="curve" smooth="yes"/>
      <point x="256" y="1486"/>
      <point x="149" y="1305"/>
      <point x="149" y="987" type="curve" smooth="yes"/>
      <point x="151" y="-6" type="line"/>
      <point x="330" y="14" type="line"/>
      <point x="329" y="963" type="line" smooth="yes"/>
      <point x="329" y="1175"/>
      <point x="334" y="1355"/>
      <point x="589" y="1355" type="curve" smooth="yes"/>
      <point x="750" y="1355"/>
      <point x="890" y="1316"/>
      <point x="890" y="1130" type="curve" smooth="yes"/>
      <point x="890" y="878"/>
      <point x="716" y="844"/>
      <point x="510" y="850" type="curve" smooth="yes"/>
      <point x="498" y="850"/>
      <point x="478" y="851"/>
      <point x="465" y="852" type="curve"/>
      <point x="465" y="730" type="line"/>
      <point x="688" y="730"/>
      <point x="1053" y="717"/>
      <point x="1053" y="406" type="curve" smooth="yes"/>
      <point x="1053" y="56"/>
      <point x="793" y="24"/>
      <point x="496" y="24" type="curve"/>
    </contour>
  </outline>
</glyph>
<glyph name="ae" format="1">
  <advance width="1680"/>
  <unicode hex="00E6"/>
  <outline>
    <contour>
      <point x="862" y="1098" type="move" name="top"/>
    </contour>
    <contour>
      <point x="408" y="-22" type="curve" smooth="yes"/>
      <point x="574" y="-22"/>
      <point x="733" y="65"/>
      <point x="828" y="197" type="curve"/>
      <point x="913" y="45"/>
      <point x="1064" y="-22"/>
      <point x="1236" y="-22" type="curve" smooth="yes"/>
      <point x="1347" y="-22"/>
      <point x="1506" y="29"/>
      <point x="1593" y="94" type="curve"/>
      <point x="1536" y="227" type="line"/>
      <point x="1455" y="157"/>
      <point x="1354" y="117"/>
      <point x="1247" y="117" type="curve" smooth="yes"/>
      <point x="980" y="117"/>
      <point x="919" y="302"/>
      <point x="919" y="534" type="curve"/>
      <point x="1636" y="534" type="line"/>
      <point x="1641" y="567"/>
      <point x="1643" y="601"/>
      <point x="1643" y="635" type="curve" smooth="yes"/>
      <point x="1643" y="900"/>
      <point x="1517" y="1119"/>
      <point x="1228" y="1119" type="curve" smooth="yes"/>
      <point x="1075" y="1119"/>
      <point x="923" y="1053"/>
      <point x="854" y="910" type="curve"/>
      <point x="803" y="1085"/>
      <point x="658" y="1119"/>
      <point x="495" y="1119" type="curve" smooth="yes"/>
      <point x="384" y="1119"/>
      <point x="190" y="1068"/>
      <point x="102" y="995" type="curve"/>
      <point x="163" y="882" type="line"/>
      <point x="249" y="943"/>
      <point x="401" y="987"/>
      <point x="505" y="987" type="curve" smooth="yes"/>
      <point x="732" y="987"/>
      <point x="744" y="870"/>
      <point x="744" y="670" type="curve" smooth="yes"/>
      <point x="744" y="624" type="line"/>
      <point x="669" y="655"/>
      <point x="540" y="671"/>
      <point x="458" y="671" type="curve" smooth="yes"/>
      <point x="235" y="671"/>
      <point x="39" y="566"/>
      <point x="39" y="322" type="curve" smooth="yes"/>
      <point x="39" y="90"/>
      <point x="182" y="-22"/>
    </contour>
    <contour>
      <point x="451" y="110" type="curve" smooth="yes"/>
      <point x="293" y="110"/>
      <point x="215" y="170"/>
      <point x="215" y="334" type="curve" smooth="yes"/>
      <point x="215" y="524"/>
      <point x="359" y="556"/>
      <point x="521" y="556" type="curve" smooth="yes"/>
      <point x="596" y="556"/>
      <point x="671" y="548"/>
      <point x="744" y="536" type="curve"/>
      <point x="744" y="258" type="line"/>
      <point x="668" y="179"/>
      <point x="566" y="110"/>
    </contour>
    <contour>
      <point x="919" y="641" type="line"/>
      <point x="919" y="848"/>
      <point x="1017" y="995"/>
      <point x="1229" y="995" type="curve" smooth="yes"/>
      <point x="1423" y="995"/>
      <point x="1488" y="849"/>
      <point x="1488" y="641" type="curve"/>
    </contour>
  </outline>
</glyph>
<glyph name="hbar" format="1">
  <advance width="1226"/>
  <unicode hex="0127"/>
  <outline>
    <contour>
      <point x="155" y="0" type="line"/>
      <point x="330" y="0" type="line"/>
      <point x="330" y="835" type="line"/>
      <point x="413" y="922"/>
      <point x="567" y="987"/>
      <point x="685" y="987" type="curve" smooth="yes"/>
      <point x="870" y="987"/>
      <point x="906" y="840"/>
      <point x="906" y="683" type="curve" smooth="yes"/>
      <point x="906" y="0" type="line"/>
      <point x="1081" y="0" type="line"/>
      <point x="1081" y="683" type="line" smooth="yes"/>
      <point x="1081" y="955"/>
      <point x="975" y="1119"/>
      <point x="698" y="1119" type="curve" smooth="yes"/>
      <point x="545" y="1119"/>
      <point x="432" y="1041"/>
      <point x="330" y="949" type="curve"/>
      <point x="330" y="1277" type="line"/>
      <point x="678" y="1277" type="line"/>
      <point x="678" y="1385" type="line"/>
      <point x="330" y="1385" type="line"/>
      <point x="330" y="1519" type="line"/>
      <point x="155" y="1484" type="line"/>
      <point x="155" y="1385" type="line"/>
      <point x="39" y="1385" type="line"/>
      <point x="39" y="1277" type="line"/>
      <point x="155" y="1277" type="line"/>
    </contour>
  </outline>
</glyph>
<glyph name="dotlessi" format="1">
  <advance width="605"/>
  <unicode hex="0131"/>
  <outline>
    <contour>
      <point x="319" y="0" type="move" name="ogonek"/>
    </contour>
    <contour>
      <point x="312" y="1098" type="move" name="top"/>
    </contour>
    <contour>
      <point x="215" y="0" type="line"/>
      <point x="383" y="0" type="line"/>
      <point x="383" y="1099" type="line"/>
      <point x="215" y="1099" type="line"/>
    </contour>
  </outline>
</glyph>
<glyph name="kgreenlandic" format="1">
  <advance width="1137"/>
  <unicode hex="0138"/>
  <outline>
    <contour>
      <point x="143" y="0" type="line"/>
      <point x="318" y="0" type="line"/>
      <point x="318" y="432" type="line"/>
      <point x="428" y="524" type="line"/>
      <point x="882" y="0" type="line"/>
      <point x="1086" y="0" type="line"/>
      <point x="533" y="609" type="line"/>
      <point x="1054" y="1098" type="line"/>
      <point x="846" y="1098" type="line"/>
      <point x="318" y="588" type="line"/>
      <point x="318" y="1098" type="line"/>
      <point x="143" y="1098" type="line"/>
    </contour>
  </outline>
</glyph>
<glyph name="Lslash" format="1">
  <advance width="1136"/>
  <unicode hex="0141"/>
  <outline>
    <contour>
      <point x="1" y="437" type="line"/>
      <point x="619" y="850" type="line"/>
      <point x="619" y="999" type="line"/>
      <point x="1" y="586" type="line"/>
    </contour>
    <component base="L"/>
  </outline>
</glyph>
<glyph name="lslash" format="1">
  <advance width="532"/>
  <unicode hex="0142"/>
  <outline>
    <component base="l"/>
    <contour>
      <point x="-13" y="540" type="line"/>
      <point x="519" y="857" type="line"/>
      <point x="519" y="978" type="line"/>
      <point x="-13" y="650" type="line"/>
    </contour>
  </outline>
</glyph>
<glyph name="Eng" format="1">
  <advance width="1551"/>
  <unicode hex="014A"/>
  <outline>
    <contour>
      <point x="193" y="0" type="line"/>
      <point x="362" y="0" type="line"/>
      <point x="362" y="1409" type="line"/>
      <point x="1287" y="63" type="line"/>
      <point x="1287" y="-185"/>
      <point x="1267" y="-229"/>
      <point x="1049" y="-308" type="curve"/>
      <point x="1095" y="-436" type="line"/>
      <point x="1313.62" y="-383.494"/>
      <point x="1434.81" y="-295.975"/>
      <point x="1445.25" y="-5.70312" type="curve"/>
      <point x="1445" y="0" type="line"/>
      <point x="1445" y="1580" type="line"/>
      <point x="1276" y="1580" type="line"/>
      <point x="1276" y="343" type="line"/>
      <point x="450" y="1580" type="line"/>
      <point x="193" y="1580" type="line"/>
    </contour>
  </outline>
</glyph>
<glyph name="eng" format="1">
  <advance width="1196"/>
  <unicode hex="014B"/>
  <outline>
    <component base="n"/>
    <contour>
      <point x="792" y="-433" type="line"/>
      <point x="1019" y="-378"/>
      <point x="1139" y="-279"/>
      <point x="1139" y="42" type="curve" smooth="yes"/>
      <point x="1139" y="251" type="line"/>
      <point x="956" y="251" type="line"/>
      <point x="956" y="63" type="line" smooth="yes"/>
      <point x="956" y="-183"/>
      <point x="950" y="-227"/>
      <point x="746" y="-305" type="curve"/>
    </contour>
  </outline>
</glyph>
<glyph name="circumflex" format="1">
  <advance width="870"/>
  <unicode hex="02C6"/>
  <outline>
    <contour>
      <point x="427" y="1098" type="move" name="_top"/>
    </contour>
    <contour>
      <point x="106" y="1279" type="line"/>
      <point x="252" y="1279" type="line"/>
      <point x="424" y="1558" type="line"/>
      <point x="595" y="1279" type="line"/>
      <point x="741" y="1279" type="line"/>
      <point x="486" y="1691" type="line"/>
      <point x="361" y="1691" type="line"/>
    </contour>
  </outline>
</glyph>
<glyph name="breve" format="1">
  <advance width="810"/>
  <unicode hex="02D8"/>
  <outline>
    <contour>
      <point x="410" y="1098" type="move" name="_top"/>
    </contour>
    <contour>
      <point x="402" y="1241" type="curve" smooth="yes"/>
      <point x="568" y="1241"/>
      <point x="673" y="1328"/>
      <point x="673" y="1467" type="curve"/>
      <point x="555" y="1467" type="line"/>
      <point x="555" y="1395"/>
      <point x="496" y="1349"/>
      <point x="403" y="1349" type="curve" smooth="yes"/>
      <point x="309" y="1349"/>
      <point x="252" y="1395"/>
      <point x="252" y="1467" type="curve"/>
      <point x="133" y="1467" type="line"/>
      <point x="133" y="1328"/>
      <point x="237" y="1241"/>
    </contour>
  </outline>
</glyph>
<glyph name="tilde" format="1">
  <advance width="973"/>
  <unicode hex="02DC"/>
  <outline>
    <contour>
      <point x="501" y="1098" type="move" name="_top"/>
    </contour>
    <contour>
      <point x="178" y="1247" type="curve"/>
      <point x="247" y="1247" type="line"/>
      <point x="247" y="1423"/>
      <point x="505" y="1251"/>
      <point x="653" y="1248" type="curve" smooth="yes"/>
      <point x="760" y="1247"/>
      <point x="812" y="1310"/>
      <point x="812" y="1461" type="curve"/>
      <point x="744" y="1461" type="line"/>
      <point x="744" y="1299"/>
      <point x="479" y="1464"/>
      <point x="346" y="1467" type="curve" smooth="yes"/>
      <point x="235" y="1468"/>
      <point x="178" y="1409"/>
    </contour>
  </outline>
</glyph>
<glyph name="hungarumlaut" format="1">
  <advance width="925"/>
  <unicode hex="02DD"/>
  <outline>
    <contour>
      <point x="241" y="1098" type="move" name="_top"/>
    </contour>
    <contour>
      <point x="86" y="1292" type="line"/>
      <point x="505" y="1665" type="line"/>
      <point x="366" y="1769" type="line"/>
      <point x="43" y="1331" type="line"/>
    </contour>
    <contour>
      <point x="397" y="1288" type="line"/>
      <point x="866" y="1591" type="line"/>
      <point x="745" y="1717" type="line"/>
      <point x="360" y="1332" type="line"/>
    </contour>
  </outline>
</glyph>
<glyph name="uni0307" format="1">
  <advance width="610"/>
  <unicode hex="0307"/>
  <outline>
    <contour>
      <point x="302" y="1098" type="move" name="_top"/>
    </contour>
    <contour>
      <point x="303" y="1272" type="curve" smooth="yes"/>
      <point x="364" y="1272"/>
      <point x="402" y="1312"/>
      <point x="402" y="1378" type="curve" smooth="yes"/>
      <point x="402" y="1444"/>
      <point x="364" y="1485"/>
      <point x="303" y="1485" type="curve" smooth="yes"/>
      <point x="239" y="1485"/>
      <point x="199" y="1444"/>
      <point x="199" y="1378" type="curve" smooth="yes"/>
      <point x="199" y="1312"/>
      <point x="239" y="1272"/>
    </contour>
  </outline>
</glyph>
<glyph name="uni030F" format="1">
  <advance width="896"/>
  <unicode hex="030F"/>
  <outline>
    <contour>
      <point x="669" y="1098" type="move" name="_top"/>
    </contour>
    <contour>
      <point x="514" y="1288" type="line"/>
      <point x="550" y="1332" type="line"/>
      <point x="165" y="1717" type="line"/>
      <point x="45" y="1591" type="line"/>
    </contour>
    <contour>
      <point x="824" y="1292" type="line"/>
      <point x="867" y="1331" type="line"/>
      <point x="544" y="1769" type="line"/>
      <point x="406" y="1665" type="line"/>
    </contour>
  </outline>
</glyph>
<glyph name="uni0311" format="1">
  <advance width="788"/>
  <unicode hex="0311"/>
  <outline>
    <contour>
      <point x="410" y="1098" type="move" name="_top"/>
    </contour>
    <contour>
      <point x="133" y="1242" type="curve"/>
      <point x="252" y="1242" type="line"/>
      <point x="252" y="1315"/>
      <point x="309" y="1360"/>
      <point x="403" y="1360" type="curve" smooth="yes"/>
      <point x="497" y="1360"/>
      <point x="555" y="1315"/>
      <point x="555" y="1242" type="curve"/>
      <point x="673" y="1242" type="line"/>
      <point x="673" y="1382"/>
      <point x="569" y="1468"/>
      <point x="402" y="1468" type="curve" smooth="yes"/>
      <point x="236" y="1468"/>
      <point x="133" y="1382"/>
    </contour>
  </outline>
</glyph>
<glyph name="uni0326" format="1">
  <advance width="665"/>
  <unicode hex="0326"/>
  <outline>
    <contour>
      <point x="389" y="0" type="move" name="_bot"/>
    </contour>
    <contour>
      <point x="289" y="-573" type="line"/>
      <point x="424" y="-534"/>
      <point x="482" y="-440"/>
      <point x="482" y="-296" type="curve" smooth="yes"/>
      <point x="482" y="-108" type="line"/>
      <point x="289" y="-108" type="line"/>
      <point x="289" y="-337" type="line"/>
      <point x="382" y="-337" type="line"/>
      <point x="383" y="-426"/>
      <point x="335" y="-487"/>
      <point x="255" y="-514" type="curve"/>
    </contour>
  </outline>
</glyph>
<glyph name="Sigma" format="1">
  <advance width="1282"/>
  <unicode hex="03A3"/>
  <outline>
    <contour>
      <point x="149" y="0" type="line"/>
      <point x="1177" y="0" type="line"/>
      <point x="1177" y="138" type="line"/>
      <point x="316" y="138" type="line"/>
      <point x="983" y="705" type="line"/>
      <point x="983" y="787" type="line"/>
      <point x="316" y="1353" type="line"/>
      <point x="1154" y="1353" type="line"/>
      <point x="1154" y="1485" type="line"/>
      <point x="149" y="1485" type="line"/>
      <point x="149" y="1300" type="line"/>
      <point x="801" y="743" type="line"/>
      <point x="149" y="166" type="line"/>
    </contour>
  </outline>
</glyph>
<glyph name="uni03BC" format="1">
  <advance width="1223"/>
  <unicode hex="03BC"/>
  <outline>
    <contour>
      <point x="316" y="-273" type="line"/>
      <point x="316" y="105" type="line"/>
      <point x="372" y="33"/>
      <point x="446" y="-19"/>
      <point x="543" y="-19" type="curve" smooth="yes"/>
      <point x="693" y="-19"/>
      <point x="820" y="51"/>
      <point x="918" y="161" type="curve"/>
      <point x="941" y="14" type="line"/>
      <point x="1075" y="14" type="line"/>
      <point x="1075" y="1099" type="line"/>
      <point x="885" y="1099" type="line"/>
      <point x="885" y="258" type="line"/>
      <point x="813" y="170"/>
      <point x="666" y="114"/>
      <point x="555" y="114" type="curve" smooth="yes"/>
      <point x="370" y="114"/>
      <point x="316" y="252"/>
      <point x="316" y="415" type="curve" smooth="yes"/>
      <point x="316" y="1099" type="line"/>
      <point x="155" y="1099" type="line"/>
      <point x="155" y="-274" type="line"/>
    </contour>
  </outline>
</glyph>
<glyph name="pi" format="1">
  <advance width="1650"/>
  <unicode hex="03C0"/>
  <outline>
    <contour>
      <point x="1200" y="-11" type="curve" smooth="yes"/>
      <point x="1273" y="-11"/>
      <point x="1338" y="11"/>
      <point x="1377" y="46" type="curve"/>
      <point x="1377" y="160" type="line"/>
      <point x="1348" y="149"/>
      <point x="1290" y="125"/>
      <point x="1249" y="125" type="curve" smooth="yes"/>
      <point x="1157" y="125"/>
      <point x="1113" y="225"/>
      <point x="1113" y="443" type="curve" smooth="yes"/>
      <point x="1113" y="570"/>
      <point x="1129" y="736"/>
      <point x="1158" y="948" type="curve"/>
      <point x="1405" y="948" type="line"/>
      <point x="1405" y="1098" type="line"/>
      <point x="496" y="1098" type="line" smooth="yes"/>
      <point x="254" y="1098"/>
      <point x="183" y="1015"/>
      <point x="183" y="792" type="curve"/>
      <point x="272" y="792" type="line"/>
      <point x="284" y="890"/>
      <point x="328" y="948"/>
      <point x="415" y="948" type="curve" smooth="yes"/>
      <point x="582" y="948" type="line"/>
      <point x="470" y="393" type="line" smooth="yes"/>
      <point x="425" y="170"/>
      <point x="310" y="105"/>
      <point x="184" y="104" type="curve"/>
      <point x="184" y="5" type="line"/>
      <point x="525" y="5"/>
      <point x="578" y="112"/>
      <point x="606" y="339" type="curve" smooth="yes"/>
      <point x="683" y="948" type="line"/>
      <point x="1044" y="948" type="line"/>
      <point x="1008" y="690"/>
      <point x="969" y="461"/>
      <point x="969" y="295" type="curve" smooth="yes"/>
      <point x="969" y="101"/>
      <point x="1022" y="-11"/>
    </contour>
  </outline>
</glyph>
<glyph name="emdash" format="1">
  <advance width="1088"/>
  <unicode hex="2014"/>
  <outline>
    <contour>
      <point x="110" y="522" type="line"/>
      <point x="979" y="522" type="line"/>
      <point x="979" y="654" type="line"/>
      <point x="110" y="654" type="line"/>
    </contour>
  </outline>
</glyph>
<glyph name="quoteleft" format="1">
  <advance width="666"/>
  <unicode hex="2018"/>
  <outline>
    <contour>
      <point x="200" y="978" type="line"/>
      <point x="458" y="978" type="line"/>
      <point x="458" y="1249" type="line"/>
      <point x="337" y="1249" type="line"/>
      <point x="336" y="1339"/>
      <point x="379" y="1374"/>
      <point x="458" y="1401" type="curve"/>
      <point x="412" y="1487" type="line"/>
      <point x="275" y="1448"/>
      <point x="200" y="1352"/>
      <point x="200" y="1209" type="curve" smooth="yes"/>
    </contour>
  </outline>
</glyph>
<glyph name="quoteright" format="1">
  <advance width="626"/>
  <unicode hex="2019"/>
  <outline>
    <contour>
      <point x="236" y="976" type="line"/>
      <point x="372" y="1015"/>
      <point x="446" y="1111"/>
      <point x="446" y="1254" type="curve" smooth="yes"/>
      <point x="446" y="1486" type="line"/>
      <point x="189" y="1486" type="line"/>
      <point x="189" y="1214" type="line"/>
      <point x="310" y="1214" type="line"/>
      <point x="310" y="1123"/>
      <point x="269" y="1089"/>
      <point x="189" y="1062" type="curve"/>
    </contour>
  </outline>
</glyph>
<glyph name="quotesinglbase" format="1">
  <advance width="666"/>
  <unicode hex="201A"/>
  <outline>
    <contour>
      <point x="247" y="-237" type="line"/>
      <point x="384" y="-198"/>
      <point x="459" y="-103"/>
      <point x="459" y="40" type="curve" smooth="yes"/>
      <point x="459" y="273" type="line"/>
      <point x="201" y="273" type="line"/>
      <point x="201" y="1" type="line"/>
      <point x="321" y="1" type="line"/>
      <point x="322" y="-90"/>
      <point x="281" y="-124"/>
      <point x="201" y="-151" type="curve"/>
    </contour>
  </outline>
</glyph>
<glyph name="quotedblright" format="1">
  <advance width="876"/>
  <unicode hex="201D"/>
  <outline>
    <contour>
      <point x="199" y="976" type="line"/>
      <point x="336" y="1015"/>
      <point x="411" y="1111"/>
      <point x="411" y="1254" type="curve" smooth="yes"/>
      <point x="411" y="1486" type="line"/>
      <point x="153" y="1486" type="line"/>
      <point x="153" y="1214" type="line"/>
      <point x="274" y="1214" type="line"/>
      <point x="275" y="1123"/>
      <point x="232" y="1089"/>
      <point x="153" y="1062" type="curve"/>
    </contour>
    <contour>
      <point x="542" y="976" type="line"/>
      <point x="678" y="1015"/>
      <point x="753" y="1111"/>
      <point x="753" y="1254" type="curve" smooth="yes"/>
      <point x="753" y="1486" type="line"/>
      <point x="495" y="1486" type="line"/>
      <point x="495" y="1214" type="line"/>
      <point x="617" y="1214" type="line"/>
      <point x="618" y="1123"/>
      <point x="575" y="1089"/>
      <point x="495" y="1062" type="curve"/>
    </contour>
  </outline>
</glyph>
<glyph name="quotedblbase" format="1">
  <advance width="916"/>
  <unicode hex="201E"/>
  <outline>
    <contour>
      <point x="197" y="-254" type="line"/>
      <point x="334" y="-215"/>
      <point x="409" y="-119"/>
      <point x="409" y="24" type="curve" smooth="yes"/>
      <point x="409" y="256" type="line"/>
      <point x="151" y="256" type="line"/>
      <point x="151" y="-16" type="line"/>
      <point x="272" y="-16" type="line"/>
      <point x="273" y="-107"/>
      <point x="231" y="-141"/>
      <point x="151" y="-168" type="curve"/>
    </contour>
    <contour>
      <point x="540" y="-254" type="line"/>
      <point x="676" y="-215"/>
      <point x="752" y="-119"/>
      <point x="752" y="24" type="curve" smooth="yes"/>
      <point x="752" y="256" type="line"/>
      <point x="494" y="256" type="line"/>
      <point x="494" y="-16" type="line"/>
      <point x="615" y="-16" type="line"/>
      <point x="616" y="-107"/>
      <point x="574" y="-141"/>
      <point x="494" y="-168" type="curve"/>
    </contour>
  </outline>
</glyph>
<glyph name="dagger" format="1">
  <advance width="1071"/>
  <unicode hex="2020"/>
  <outline>
    <contour>
      <point x="452" y="-188" type="line"/>
      <point x="618" y="-188" type="line"/>
      <point x="618" y="960" type="line"/>
      <point x="923" y="960" type="line"/>
      <point x="923" y="1089" type="line"/>
      <point x="618" y="1089" type="line"/>
      <point x="618" y="1485" type="line"/>
      <point x="452" y="1485" type="line"/>
      <point x="452" y="1089" type="line"/>
      <point x="146" y="1089" type="line"/>
      <point x="146" y="960" type="line"/>
      <point x="452" y="960" type="line"/>
    </contour>
  </outline>
</glyph>
<glyph name="daggerdbl" format="1">
  <advance width="1068"/>
  <unicode hex="2021"/>
  <outline>
    <contour>
      <point x="452" y="-188" type="line"/>
      <point x="618" y="-188" type="line"/>
      <point x="618" y="286" type="line"/>
      <point x="921" y="286" type="line"/>
      <point x="921" y="414" type="line"/>
      <point x="618" y="414" type="line"/>
      <point x="618" y="960" type="line"/>
      <point x="923" y="960" type="line"/>
      <point x="923" y="1089" type="line"/>
      <point x="618" y="1089" type="line"/>
      <point x="618" y="1485" type="line"/>
      <point x="452" y="1485" type="line"/>
      <point x="452" y="1089" type="line"/>
      <point x="146" y="1089" type="line"/>
      <point x="146" y="960" type="line"/>
      <point x="452" y="960" type="line"/>
      <point x="452" y="414" type="line"/>
      <point x="146" y="414" type="line"/>
      <point x="146" y="286" type="line"/>
      <point x="452" y="286" type="line"/>
    </contour>
  </outline>
</glyph>
<glyph name="bullet" format="1">
  <advance width="906"/>
  <unicode hex="2022"/>
  <outline>
    <contour>
      <point x="447" y="337" type="curve" smooth="yes"/>
      <point x="625" y="337"/>
      <point x="776" y="467"/>
      <point x="776" y="650" type="curve" smooth="yes"/>
      <point x="776" y="830"/>
      <point x="623" y="966"/>
      <point x="447" y="966" type="curve" smooth="yes"/>
      <point x="270" y="966"/>
      <point x="121" y="831"/>
      <point x="121" y="650" type="curve" smooth="yes"/>
      <point x="121" y="470"/>
      <point x="270" y="337"/>
    </contour>
  </outline>
</glyph>
<glyph name="perthousand" format="1">
  <advance width="2459"/>
  <unicode hex="2030"/>
  <outline>
    <component base="percent"/>
    <contour>
      <point x="2074" y="86" type="curve" smooth="yes"/>
      <point x="1966" y="86"/>
      <point x="1897" y="192"/>
      <point x="1897" y="363" type="curve" smooth="yes"/>
      <point x="1897" y="543"/>
      <point x="1966" y="654"/>
      <point x="2074" y="654" type="curve" smooth="yes"/>
      <point x="2183" y="654"/>
      <point x="2251" y="543"/>
      <point x="2251" y="363" type="curve" smooth="yes"/>
      <point x="2251" y="192"/>
      <point x="2183" y="86"/>
    </contour>
    <contour>
      <point x="2074" y="-17" type="curve" smooth="yes"/>
      <point x="2259" y="-17"/>
      <point x="2375" y="130"/>
      <point x="2375" y="363" type="curve" smooth="yes"/>
      <point x="2375" y="602"/>
      <point x="2259" y="751"/>
      <point x="2074" y="751" type="curve" smooth="yes"/>
      <point x="1890" y="751"/>
      <point x="1773" y="602"/>
      <point x="1773" y="363" type="curve" smooth="yes"/>
      <point x="1773" y="130"/>
      <point x="1890" y="-17"/>
    </contour>
  </outline>
</glyph>
<glyph name="guilsinglright" format="1">
  <advance width="869"/>
  <unicode hex="203A"/>
  <outline>
    <contour>
      <point x="180" y="116" type="line"/>
      <point x="747" y="475" type="line"/>
      <point x="747" y="609" type="line"/>
      <point x="180" y="968" type="line"/>
      <point x="180" y="797" type="line"/>
      <point x="599" y="546" type="line"/>
      <point x="180" y="290" type="line"/>
    </contour>
  </outline>
</glyph>
<glyph name="uni203E" format="1">
  <advance width="944"/>
  <unicode hex="203E"/>
  <outline>
    <contour>
      <point x="149" y="115" type="line"/>
      <point x="791" y="115" type="line"/>
      <point x="791" y="225" type="line"/>
      <point x="149" y="225" type="line"/>
    </contour>
  </outline>
</glyph>
<glyph name="uni2074" format="1">
  <advance width="968"/>
  <unicode hex="2074"/>
  <outline>
    <contour>
      <point x="618" y="422" type="line"/>
      <point x="751" y="444" type="line"/>
      <point x="751" y="688" type="line"/>
      <point x="894" y="688" type="line"/>
      <point x="894" y="792" type="line"/>
      <point x="751" y="792" type="line"/>
      <point x="751" y="1518" type="line"/>
      <point x="633" y="1545" type="line"/>
      <point x="102" y="790" type="line"/>
      <point x="122" y="688" type="line"/>
      <point x="618" y="688" type="line"/>
    </contour>
    <contour>
      <point x="249" y="791" type="line"/>
      <point x="618" y="1323" type="line"/>
      <point x="618" y="791" type="line"/>
    </contour>
  </outline>
</glyph>
<glyph name="Euro" format="1">
  <advance width="1303"/>
  <unicode hex="20AC"/>
  <outline>
    <contour>
      <point x="-34" y="554" type="line"/>
      <point x="804" y="554" type="line"/>
      <point x="804" y="661" type="line"/>
      <point x="272" y="661" type="line"/>
      <point x="272" y="875" type="line"/>
      <point x="804" y="875" type="line"/>
      <point x="804" y="982" type="line"/>
      <point x="-34" y="982" type="line"/>
      <point x="-34" y="875" type="line"/>
      <point x="200" y="875" type="line"/>
      <point x="200" y="661" type="line"/>
      <point x="-34" y="661" type="line"/>
    </contour>
    <component base="C"/>
  </outline>
</glyph>
<glyph name="trademark" format="1">
  <advance width="1440"/>
  <unicode hex="2122"/>
  <outline>
    <contour>
      <point x="609" y="599" type="line"/>
      <point x="728" y="599" type="line"/>
      <point x="728" y="1218" type="line"/>
      <point x="913" y="601" type="line"/>
      <point x="1076" y="601" type="line"/>
      <point x="1262" y="1218" type="line"/>
      <point x="1262" y="599" type="line"/>
      <point x="1380" y="599" type="line"/>
      <point x="1380" y="1336" type="line"/>
      <point x="1169" y="1336" type="line"/>
      <point x="995" y="724" type="line"/>
      <point x="820" y="1336" type="line"/>
      <point x="609" y="1336" type="line"/>
    </contour>
    <contour>
      <point x="185" y="599" type="line"/>
      <point x="310" y="599" type="line"/>
      <point x="310" y="1241" type="line"/>
      <point x="506" y="1241" type="line"/>
      <point x="506" y="1336" type="line"/>
      <point x="-7" y="1336" type="line"/>
      <point x="-7" y="1241" type="line"/>
      <point x="185" y="1241" type="line"/>
    </contour>
  </outline>
</glyph>
<glyph name="Omega" format="1">
  <advance width="1658"/>
  <unicode hex="2126"/>
  <outline>
    <contour>
      <point x="203" y="0" type="line"/>
      <point x="744" y="0" type="line"/>
      <point x="744" y="114" type="line"/>
      <point x="517" y="261"/>
      <point x="365" y="517"/>
      <point x="365" y="808" type="curve" smooth="yes"/>
      <point x="365" y="1164"/>
      <point x="593" y="1406"/>
      <point x="930" y="1406" type="curve" smooth="yes"/>
      <point x="1297" y="1406"/>
      <point x="1483" y="1127"/>
      <point x="1483" y="804" type="curve" smooth="yes"/>
      <point x="1483" y="511"/>
      <point x="1323" y="262"/>
      <point x="1100" y="114" type="curve"/>
      <point x="1101" y="0" type="line"/>
      <point x="1637" y="0" type="line"/>
      <point x="1650" y="121" type="line"/>
      <point x="1269" y="121" type="line"/>
      <point x="1461" y="265"/>
      <point x="1646" y="511"/>
      <point x="1646" y="822" type="curve" smooth="yes"/>
      <point x="1646" y="1228"/>
      <point x="1373" y="1540"/>
      <point x="935" y="1540" type="curve" smooth="yes"/>
      <point x="512" y="1540"/>
      <point x="202" y="1257"/>
      <point x="202" y="826" type="curve" smooth="yes"/>
      <point x="202" y="521"/>
      <point x="355" y="269"/>
      <point x="572" y="121" type="curve"/>
      <point x="188" y="121" type="line"/>
    </contour>
  </outline>
</glyph>
<glyph name="estimated" format="1">
  <advance width="1094"/>
  <unicode hex="212E"/>
  <outline>
    <contour>
      <point x="588" y="113" type="curve" smooth="yes"/>
      <point x="711" y="113"/>
      <point x="864" y="151"/>
      <point x="950" y="219" type="curve"/>
      <point x="913" y="303" type="line"/>
      <point x="860" y="265"/>
      <point x="751" y="204"/>
      <point x="618" y="204" type="curve" smooth="yes"/>
      <point x="514" y="204"/>
      <point x="418" y="241"/>
      <point x="350" y="321" type="curve"/>
      <point x="350" y="679" type="line"/>
      <point x="983" y="679" type="line"/>
      <point x="988" y="707"/>
      <point x="991" y="736"/>
      <point x="991" y="766" type="curve" smooth="yes"/>
      <point x="991" y="1047"/>
      <point x="860" y="1246"/>
      <point x="579" y="1246" type="curve" smooth="yes"/>
      <point x="258" y="1246"/>
      <point x="103" y="985"/>
      <point x="103" y="674" type="curve" smooth="yes"/>
      <point x="103" y="369"/>
      <point x="265" y="113"/>
    </contour>
    <contour>
      <point x="350" y="758" type="line"/>
      <point x="350" y="1059" type="line"/>
      <point x="403" y="1116"/>
      <point x="476" y="1152"/>
      <point x="580" y="1152" type="curve" smooth="yes"/>
      <point x="679" y="1152"/>
      <point x="748" y="1115"/>
      <point x="794" y="1055" type="curve"/>
      <point x="794" y="758" type="line"/>
    </contour>
  </outline>
</glyph>
<glyph name="product" format="1">
  <advance width="1566"/>
  <unicode hex="220F"/>
  <outline>
    <contour>
      <point x="263" y="-157" type="line"/>
      <point x="438" y="-157" type="line"/>
      <point x="438" y="1353" type="line"/>
      <point x="1128" y="1353" type="line"/>
      <point x="1128" y="-157" type="line"/>
      <point x="1303" y="-157" type="line"/>
      <point x="1303" y="1353" type="line"/>
      <point x="1554" y="1353" type="line"/>
      <point x="1554" y="1485" type="line"/>
      <point x="12" y="1485" type="line"/>
      <point x="12" y="1353" type="line"/>
      <point x="263" y="1353" type="line"/>
    </contour>
  </outline>
</glyph>
<glyph name="minus" format="1">
  <advance width="937"/>
  <unicode hex="2212"/>
  <outline>
    <contour>
      <point x="147" y="479" type="line"/>
      <point x="784" y="479" type="line"/>
      <point x="784" y="601" type="line"/>
      <point x="147" y="601" type="line"/>
    </contour>
  </outline>
</glyph>
<glyph name="infinity" format="1">
  <advance width="1647"/>
  <unicode hex="221E"/>
  <outline>
    <contour>
      <point x="399" y="306" type="curve" smooth="yes"/>
      <point x="562" y="306"/>
      <point x="699" y="410"/>
      <point x="826" y="520" type="curve"/>
      <point x="953" y="410"/>
      <point x="1091" y="306"/>
      <point x="1254" y="306" type="curve" smooth="yes"/>
      <point x="1401" y="306"/>
      <point x="1544" y="384"/>
      <point x="1537" y="599" type="curve"/>
      <point x="1544" y="814"/>
      <point x="1401" y="891"/>
      <point x="1254" y="891" type="curve" smooth="yes"/>
      <point x="1091" y="891"/>
      <point x="953" y="788"/>
      <point x="826" y="678" type="curve"/>
      <point x="699" y="788"/>
      <point x="562" y="891"/>
      <point x="399" y="891" type="curve" smooth="yes"/>
      <point x="253" y="891"/>
      <point x="109" y="814"/>
      <point x="117" y="599" type="curve"/>
      <point x="109" y="384"/>
      <point x="253" y="306"/>
    </contour>
    <contour>
      <point x="409" y="418" type="curve" smooth="yes"/>
      <point x="324" y="418"/>
      <point x="244" y="446"/>
      <point x="250" y="599" type="curve" smooth="yes"/>
      <point x="244" y="752"/>
      <point x="324" y="779"/>
      <point x="409" y="779" type="curve" smooth="yes"/>
      <point x="520" y="779"/>
      <point x="625" y="696"/>
      <point x="736" y="599" type="curve"/>
      <point x="625" y="502"/>
      <point x="520" y="418"/>
    </contour>
    <contour>
      <point x="1244" y="418" type="curve" smooth="yes"/>
      <point x="1133" y="418"/>
      <point x="1028" y="502"/>
      <point x="916" y="599" type="curve"/>
      <point x="1028" y="696"/>
      <point x="1133" y="779"/>
      <point x="1244" y="779" type="curve" smooth="yes"/>
      <point x="1330" y="779"/>
      <point x="1408" y="752"/>
      <point x="1403" y="599" type="curve"/>
      <point x="1408" y="446"/>
      <point x="1330" y="418"/>
    </contour>
  </outline>
</glyph>
<glyph name="notequal" format="1">
  <advance width="851"/>
  <unicode hex="2260"/>
  <outline>
    <contour>
      <point x="262" y="-122" type="line"/>
      <point x="410" y="312" type="line"/>
      <point x="748" y="312" type="line"/>
      <point x="748" y="432" type="line"/>
      <point x="450" y="432" type="line"/>
      <point x="501" y="583" type="line"/>
      <point x="748" y="583" type="line"/>
      <point x="748" y="703" type="line"/>
      <point x="542" y="703" type="line"/>
      <point x="673" y="1089" type="line"/>
      <point x="587" y="1124" type="line"/>
      <point x="444" y="703" type="line"/>
      <point x="123" y="703" type="line"/>
      <point x="123" y="583" type="line"/>
      <point x="402" y="583" type="line"/>
      <point x="352" y="432" type="line"/>
      <point x="123" y="432" type="line"/>
      <point x="123" y="312" type="line"/>
      <point x="310" y="312" type="line"/>
      <point x="176" y="-86" type="line"/>
    </contour>
  </outline>
</glyph>
<glyph name="lessequal" format="1">
  <advance width="1364"/>
  <unicode hex="2264"/>
  <outline>
    <contour>
      <point x="1092" y="340" type="line"/>
      <point x="1165" y="451" type="line"/>
      <point x="479" y="811" type="line"/>
      <point x="1165" y="1171" type="line"/>
      <point x="1092" y="1282" type="line"/>
      <point x="198" y="811" type="line"/>
    </contour>
    <contour>
      <point x="295" y="0" type="line"/>
      <point x="1148" y="0" type="line"/>
      <point x="1148" y="132" type="line"/>
      <point x="295" y="132" type="line"/>
    </contour>
  </outline>
</glyph>
<glyph name="lozenge" format="1">
  <advance width="1349"/>
  <unicode hex="25CA"/>
  <outline>
    <contour>
      <point x="675" y="125" type="line"/>
      <point x="288" y="548" type="line"/>
      <point x="676" y="973" type="line"/>
      <point x="1062" y="550" type="line"/>
    </contour>
    <contour>
      <point x="675" y="-52" type="line"/>
      <point x="1240" y="550" type="line"/>
      <point x="676" y="1150" type="line"/>
      <point x="111" y="548" type="line"/>
    </contour>
  </outline>
</glyph>
<glyph name="uniFB00" format="1">
  <advance width="1590"/>
  <unicode hex="FB00"/>
  <outline>
    <contour>
      <point x="956" y="0" type="line"/>
      <point x="1127" y="0" type="line"/>
      <point x="1127" y="984" type="line"/>
      <point x="1453" y="984" type="line"/>
      <point x="1453" y="1098" type="line"/>
      <point x="1127" y="1098" type="line"/>
      <point x="1127" y="1176" type="line" smooth="yes"/>
      <point x="1127" y="1394"/>
      <point x="1228" y="1418"/>
      <point x="1299" y="1419" type="curve" smooth="yes"/>
      <point x="1337" y="1420"/>
      <point x="1401" y="1404"/>
      <point x="1448" y="1386" type="curve"/>
      <point x="1485" y="1502" type="line"/>
      <point x="1419" y="1529"/>
      <point x="1348" y="1546"/>
      <point x="1281" y="1548" type="curve" smooth="yes"/>
      <point x="1132" y="1552"/>
      <point x="956" y="1472"/>
      <point x="956" y="1183" type="curve" smooth="yes"/>
      <point x="956" y="1098" type="line"/>
      <point x="448" y="1098" type="line"/>
      <point x="448" y="1176" type="line" smooth="yes"/>
      <point x="448" y="1394"/>
      <point x="549" y="1418"/>
      <point x="620" y="1419" type="curve" smooth="yes"/>
      <point x="658" y="1420"/>
      <point x="722" y="1404"/>
      <point x="769" y="1386" type="curve"/>
      <point x="806" y="1502" type="line"/>
      <point x="740" y="1529"/>
      <point x="669" y="1546"/>
      <point x="602" y="1548" type="curve" smooth="yes"/>
      <point x="453" y="1552"/>
      <point x="277" y="1472"/>
      <point x="277" y="1183" type="curve" smooth="yes"/>
      <point x="277" y="1098" type="line"/>
      <point x="86" y="1098" type="line"/>
      <point x="86" y="984" type="line"/>
      <point x="277" y="984" type="line"/>
      <point x="277" y="0" type="line"/>
      <point x="448" y="0" type="line"/>
      <point x="448" y="984" type="line"/>
      <point x="956" y="984" type="line"/>
    </contour>
  </outline>
</glyph>
<glyph name="uniFB01" format="1">
  <advance width="1159"/>
  <unicode hex="FB01"/>
  <outline>
    <contour>
      <point x="192" y="0" type="line"/>
      <point x="368" y="0" type="line"/>
      <point x="368" y="985" type="line"/>
      <point x="838" y="985" type="line"/>
      <point x="838" y="0" type="line"/>
      <point x="1006" y="0" type="line"/>
      <point x="1006" y="1098" type="line"/>
      <point x="368" y="1098" type="line"/>
      <point x="368" y="1176" type="line" smooth="yes"/>
      <point x="368" y="1394"/>
      <point x="469" y="1418"/>
      <point x="539" y="1419" type="curve" smooth="yes"/>
      <point x="578" y="1420"/>
      <point x="641" y="1404"/>
      <point x="688" y="1386" type="curve"/>
      <point x="724" y="1502" type="line"/>
      <point x="658" y="1529"/>
      <point x="588" y="1546"/>
      <point x="521" y="1548" type="curve" smooth="yes"/>
      <point x="372" y="1552"/>
      <point x="192" y="1472"/>
      <point x="192" y="1183" type="curve" smooth="yes"/>
      <point x="192" y="1098" type="line"/>
      <point x="4" y="1098" type="line"/>
      <point x="4" y="985" type="line"/>
      <point x="192" y="985" type="line"/>
    </contour>
    <contour>
      <point x="926" y="1266" type="curve" smooth="yes"/>
      <point x="986" y="1266"/>
      <point x="1026" y="1315"/>
      <point x="1026" y="1372" type="curve" smooth="yes"/>
      <point x="1026" y="1429"/>
      <point x="986" y="1480"/>
      <point x="926" y="1480" type="curve" smooth="yes"/>
      <point x="868" y="1480"/>
      <point x="822" y="1429"/>
      <point x="822" y="1372" type="curve" smooth="yes"/>
      <point x="822" y="1315"/>
      <point x="867" y="1266"/>
    </contour>
  </outline>
</glyph>
<glyph name="uniFB02" format="1">
  <advance width="1300"/>
  <unicode hex="FB02"/>
  <outline>
    <contour>
      <point x="237" y="0" type="line"/>
      <point x="413" y="0" type="line"/>
      <point x="413" y="982" type="line"/>
      <point x="740" y="982" type="line"/>
      <point x="740" y="1096" type="line"/>
      <point x="413" y="1096" type="line"/>
      <point x="413" y="1176" type="line"/>
      <point x="413" y="1363"/>
      <point x="540" y="1420"/>
      <point x="690" y="1420" type="curve" smooth="yes"/>
      <point x="766" y="1420"/>
      <point x="846" y="1406"/>
      <point x="919" y="1386" type="curve"/>
      <point x="919" y="0" type="line"/>
      <point x="1090" y="0" type="line"/>
      <point x="1090" y="1475" type="line"/>
      <point x="944" y="1523"/>
      <point x="801" y="1550"/>
      <point x="675" y="1550" type="curve" smooth="yes"/>
      <point x="421" y="1550"/>
      <point x="237" y="1442"/>
      <point x="237" y="1183" type="curve" smooth="yes"/>
      <point x="237" y="1096" type="line"/>
      <point x="49" y="1096" type="line"/>
      <point x="49" y="982" type="line"/>
      <point x="237" y="982" type="line"/>
    </contour>
  </outline>
</glyph>
<glyph name="uniFB04" format="1">
  <advance width="2112"/>
  <unicode hex="FB04"/>
  <outline>
    <contour>
      <point x="1653" y="0" type="line"/>
      <point x="1824" y="0" type="line"/>
      <point x="1824" y="1521" type="line"/>
      <point x="1653" y="1486" type="line"/>
    </contour>
    <contour>
      <point x="956" y="0" type="line"/>
      <point x="1127" y="0" type="line"/>
      <point x="1127" y="982" type="line"/>
      <point x="1453" y="982" type="line"/>
      <point x="1453" y="1096" type="line"/>
      <point x="1127" y="1096" type="line"/>
      <point x="1127" y="1176" type="line" smooth="yes"/>
      <point x="1127" y="1394"/>
      <point x="1228" y="1418"/>
      <point x="1299" y="1419" type="curve" smooth="yes"/>
      <point x="1337" y="1420"/>
      <point x="1401" y="1404"/>
      <point x="1448" y="1386" type="curve"/>
      <point x="1485" y="1502" type="line"/>
      <point x="1419" y="1529"/>
      <point x="1348" y="1546"/>
      <point x="1281" y="1548" type="curve" smooth="yes"/>
      <point x="1132" y="1552"/>
      <point x="956" y="1472"/>
      <point x="956" y="1183" type="curve" smooth="yes"/>
      <point x="956" y="1096" type="line"/>
      <point x="448" y="1096" type="line"/>
      <point x="448" y="1176" type="line" smooth="yes"/>
      <point x="448" y="1394"/>
      <point x="549" y="1418"/>
      <point x="620" y="1419" type="curve" smooth="yes"/>
      <point x="658" y="1420"/>
      <point x="722" y="1404"/>
      <point x="769" y="1386" type="curve"/>
      <point x="806" y="1502" type="line"/>
      <point x="740" y="1529"/>
      <point x="669" y="1546"/>
      <point x="602" y="1548" type="curve" smooth="yes"/>
      <point x="453" y="1552"/>
      <point x="277" y="1472"/>
      <point x="277" y="1183" type="curve" smooth="yes"/>
      <point x="277" y="1096" type="line"/>
      <point x="86" y="1096" type="line"/>
      <point x="86" y="982" type="line"/>
      <point x="277" y="982" type="line"/>
      <point x="277" y="0" type="line"/>
      <point x="448" y="0" type="line"/>
      <point x="448" y="982" type="line"/>
      <point x="956" y="982" type="line"/>
    </contour>
  </outline>
</glyph>
<glyph name="caron.alt" format="1">
  <advance width="564"/>
  <outline>
    <component base="comma" xOffset="2" yOffset="1481"/>
    <contour>
      <point x="28" y="1098" type="move" name="_caron.alt"/>
    </contour>
  </outline>
</glyph>
<glyph name="fj" format="1">
  <advance width="1225"/>
  <outline>
    <contour>
      <point x="400" y="1096" type="line"/>
      <point x="400" y="1316"/>
      <point x="411" y="1437"/>
      <point x="555" y="1437" type="curve" smooth="yes"/>
      <point x="595" y="1438"/>
      <point x="648" y="1418"/>
      <point x="717" y="1372" type="curve"/>
      <point x="767" y="1483" type="line"/>
      <point x="670" y="1538"/>
      <point x="590" y="1563"/>
      <point x="523" y="1563" type="curve" smooth="yes"/>
      <point x="305" y="1562"/>
      <point x="225" y="1401"/>
      <point x="225" y="1096" type="curve"/>
      <point x="41" y="1096" type="line"/>
      <point x="41" y="999" type="line"/>
      <point x="225" y="999" type="line"/>
      <point x="225" y="0" type="line"/>
      <point x="400" y="0" type="line"/>
      <point x="400" y="999" type="line"/>
      <point x="858" y="999" type="line"/>
      <point x="858" y="163" type="line" smooth="yes"/>
      <point x="858" y="-20"/>
      <point x="845" y="-142"/>
      <point x="680" y="-244" type="curve"/>
      <point x="724" y="-352" type="line"/>
      <point x="949" y="-297"/>
      <point x="1033" y="-70"/>
      <point x="1033" y="143" type="curve" smooth="yes"/>
      <point x="1033" y="1096" type="line"/>
    </contour>
    <contour>
      <point x="945" y="1266" type="curve" smooth="yes"/>
      <point x="1006" y="1266"/>
      <point x="1045" y="1315"/>
      <point x="1045" y="1372" type="curve" smooth="yes"/>
      <point x="1045" y="1429"/>
      <point x="1006" y="1480"/>
      <point x="945" y="1480" type="curve" smooth="yes"/>
      <point x="887" y="1480"/>
      <point x="841" y="1429"/>
      <point x="841" y="1372" type="curve" smooth="yes"/>
      <point x="841" y="1315"/>
      <point x="886" y="1266"/>
    </contour>
  </outline>
</glyph>
